<?xml version="1.0" standalone="no"?>
<!DOCTYPE svg PUBLIC "-//W3C//DTD SVG 20010904//EN" "http://www.w3.org/TR/2001/REC-SVG-20010904/DTD/svg10.dtd">
<svg xmlns="http://www.w3.org/2000/svg" version="1.0" width="879.000000pt" height="755.000000pt" viewBox="0 0 879.000000 755.000000" preserveAspectRatio="xMidYMid meet">
<metadata>
Created by potrace 1.16, written by Peter Selinger 2001-2019
<meta name="Producer" content="Online-Convert"/></metadata>
<g transform="translate(0.000000,755.000000) scale(0.100000,-0.100000)" fill="#000000" stroke="none">
<path d="M5772 6627 c-7 -7 -12 -139 -14 -357 -5 -385 -5 -388 -80 -533 -57 -109 -220 -317 -249 -317 -5 0 -96 22 -201 50 -463 119 -708 157 -958 147 -288 -12 -720 -79 -979 -153 -296 -84 -645 -233 -975 -417 l-109 -61 -202 103 c-281 142 -386 229 -511 422 -43 66 -157 291 -206 407 -35 81 -49 81 -125 -3 -203 -225 -293 -505 -293 -910 0 -504 139 -859 476 -1214 96 -101 114 -126 114 -152 0 -19 -26 -83 -66 -162 -98 -193 -231 -490 -264 -587 -91 -270 -45 -545 133 -799 54 -76 148 -175 199 -207 42 -27 175 -74 207 -74 27 0 56 47 78 122 9 31 22 59 28 62 7 2 36 -31 68 -77 165 -243 365 -378 649 -439 124 -26 359 -31 478 -9 67 12 249 60 292 76 13 5 24 -7 49 -57 67 -133 163 -249 263 -317 102 -70 307 -144 491 -178 139 -25 391 -22 525 6 242 50 454 141 597 255 97 77 159 153 207 253 l35 73 123 0 c140 0 281 29 462 95 221 80 317 137 428 253 109 114 176 235 227 411 70 238 42 510 -76 745 -14 27 -21 52 -16 56 4 5 44 -19 88 -52 88 -66 231 -157 300 -190 l43 -21 83 59 c119 84 240 206 273 276 32 66 53 186 63 359 l6 116 -71 104 c-148 215 -205 269 -457 437 -71 47 -134 93 -140 102 -5 8 -47 102 -93 209 l-84 194 31 106 c48 167 55 223 55 411 0 198 -14 286 -71 465 -89 279 -226 479 -460 675 -112 94 -330 250 -348 250 -7 0 -17 -6 -23 -13z m156 -164 c146 -103 413 -349 427 -393 3 -9 -12 -55 -34 -101 -45 -98 -79 -133 -182 -185 -63 -31 -70 -38 -67 -62 4 -38 30 -39 104 -2 90 44 165 116 198 190 15 34 33 59 39 57 17 -5 136 -287 137 -322 0 -41 -50 -144 -94 -193 -32 -35 -164 -112 -193 -112 -19 0 -35 -29 -28 -50 6 -19 12 -21 43 -16 94 16 245 121 289 201 16 28 23 16 33 -56 15 -99 12 -276 -6 -378 -18 -107 -45 -196 -59 -196 -5 0 -35 43 -65 95 l-57 95 -89 47 c-211 112 -473 218 -681 273 -54 15 -102 30 -106 35 -5 4 28 54 72 111 90 115 173 270 196 364 19 82 35 297 35 487 0 106 4 158 11 158 6 0 40 -21 77 -47z m-4625 -755 c183 -369 333 -520 694 -699 68 -33 122 -66 121 -71 -2 -6 -78 -54 -170 -107 -91 -53 -173 -103 -183 -111 -25 -20 -143 -270 -193 -405 -53 -148 -79 -256 -92 -400 -6 -65 -13 -122 -16 -125 -12 -11 -193 190 -253 280 -64 96 -156 268 -148 277 3 2 27 -7 54 -20 54 -27 134 -47 193 -47 30 0 42 5 51 22 10 18 8 24 -7 35 -10 7 -32 13 -48 13 -78 0 -208 54 -269 112 -37 36 -46 63 -72 237 -17 119 -30 323 -21 346 5 15 15 9 60 -33 69 -66 146 -104 211 -106 47 -1 50 1 50 24 0 21 -9 27 -60 45 -80 27 -137 67 -199 139 l-51 58 2 82 c4 133 55 301 134 437 43 74 115 169 128 169 5 0 43 -69 84 -152z m3390 -1453 c37 -55 91 -127 121 -161 96 -108 310 -256 457 -316 44 -17 78 -37 76 -43 -2 -5 -39 -17 -83 -26 -115 -22 -144 -34 -221 -88 -84 -60 -234 -215 -295 -307 -151 -226 -218 -447 -218 -714 0 -38 -5 -73 -12 -82 -10 -12 -68 -24 -218 -46 -113 -16 -209 -27 -214 -25 -4 3 -5 30 -1 60 12 100 7 334 -10 422 -26 132 -54 196 -152 341 -81 120 -157 206 -242 273 l-22 18 88 93 c141 147 276 315 496 614 l68 93 157 -3 157 -3 68 -100z m1444 -726 c132 -76 339 -345 424 -552 109 -264 101 -515 -26 -792 -111 -241 -342 -401 -725 -501 -112 -29 -330 -45 -354 -25 -10 9 -14 37 -15 104 0 187 -67 335 -215 478 -30 29 -53 56 -50 61 3 4 63 8 133 8 139 0 226 16 341 65 158 67 287 184 363 332 76 147 91 216 91 423 0 165 -2 182 -32 295 -18 66 -32 123 -32 128 0 16 46 5 97 -24z m-2478 -63 c58 -30 215 -230 276 -351 73 -145 80 -185 80 -447 0 -189 -3 -230 -15 -242 -8 -7 -62 -32 -120 -55 -136 -54 -274 -137 -356 -213 -155 -145 -264 -345 -264 -484 0 -23 -6 -46 -13 -52 -35 -29 -276 -83 -433 -97 -96 -8 -265 10 -372 41 -172 49 -298 123 -421 245 -168 168 -263 383 -265 599 l-1 95 49 23 c26 13 54 21 61 19 7 -3 15 -34 18 -74 9 -97 29 -148 90 -228 148 -196 430 -315 746 -315 271 0 455 74 638 256 136 137 254 333 305 509 20 69 23 101 22 235 0 138 -3 165 -27 245 -15 50 -48 131 -73 181 -39 78 -44 95 -35 113 15 28 53 27 110 -3z m-2209 -164 c0 -77 22 -235 46 -336 l17 -69 -26 -21 c-15 -12 -40 -32 -57 -45 -17 -13 -42 -45 -56 -72 -13 -27 -28 -49 -33 -49 -5 0 -24 25 -41 56 -28 47 -36 55 -58 52 -16 -2 -28 -10 -30 -21 -2 -9 26 -68 61 -130 l65 -112 -13 -184 c-8 -100 -16 -185 -19 -188 -10 -11 -24 9 -68 99 -116 237 -109 446 28 756 85 192 163 344 174 337 6 -3 10 -36 10 -73z m3318 -898 c159 -30 293 -104 418 -228 71 -71 99 -108 128 -166 39 -80 66 -186 66 -260 0 -122 -66 -274 -161 -370 -244 -248 -748 -389 -1134 -316 -341 64 -549 181 -667 377 -112 185 -110 310 7 488 143 216 364 359 675 435 261 63 482 77 668 40z"/>
<path d="M4379 2170 c-139 -25 -303 -87 -394 -150 -48 -33 -54 -49 -30 -74 31 -31 274 -106 490 -152 66 -14 123 -28 128 -33 4 -4 1 -39 -6 -79 -16 -81 -47 -133 -117 -193 -78 -68 -129 -86 -290 -105 -80 -9 -151 -21 -157 -27 -20 -15 -15 -35 10 -51 20 -14 39 -13 179 8 197 30 247 54 352 168 l71 78 75 -50 c82 -55 107 -64 219 -80 63 -9 78 -8 98 5 16 11 23 24 21 38 -3 20 -11 23 -93 29 -102 9 -179 40 -254 104 l-43 37 4 64 c4 71 7 74 83 99 74 24 202 89 270 138 50 35 60 47 60 71 0 28 -7 33 -86 72 -132 66 -218 85 -394 89 -82 1 -171 -1 -196 -6z m401 -85 c85 -26 170 -66 170 -81 0 -30 -180 -131 -301 -169 -54 -17 -58 -17 -160 4 -137 29 -409 119 -409 136 0 31 202 106 345 129 67 10 300 -2 355 -19z"/>
</g>
</svg>
