<?xml version="1.0" encoding="UTF-8" standalone="no"?>
<!-- Created with Inkscape (http://www.inkscape.org/) -->

<svg
   width="512"
   height="512"
   viewBox="0 0 512 512"
   version="1.1"
   id="svg1"
   xml:space="preserve"
   sodipodi:docname="dibujo.svg"
   inkscape:version="1.4.2 (f4327f4, 2025-05-13)"
   xmlns:inkscape="http://www.inkscape.org/namespaces/inkscape"
   xmlns:sodipodi="http://sodipodi.sourceforge.net/DTD/sodipodi-0.dtd"
   xmlns:xlink="http://www.w3.org/1999/xlink"
   xmlns="http://www.w3.org/2000/svg"
   xmlns:svg="http://www.w3.org/2000/svg"><sodipodi:namedview
     id="namedview1"
     pagecolor="#ffffff"
     bordercolor="#000000"
     borderopacity="0.25"
     inkscape:showpageshadow="2"
     inkscape:pageopacity="0.0"
     inkscape:pagecheckerboard="0"
     inkscape:deskcolor="#d1d1d1"
     inkscape:document-units="px"
     inkscape:zoom="1.1255704"
     inkscape:cx="300.73641"
     inkscape:cy="289.18671"
     inkscape:window-width="1920"
     inkscape:window-height="1017"
     inkscape:window-x="1432"
     inkscape:window-y="61"
     inkscape:window-maximized="1"
     inkscape:current-layer="layer3" /><defs
     id="defs1" /><g
     inkscape:groupmode="layer"
     id="layer3"
     inkscape:label="Layer 1"><g
       id="g4" /><path
       style="fill:#f9f9f9"
       sodipodi:type="inkscape:offset"
       inkscape:radius="13.467781"
       inkscape:original="M 266.03125 82.625 C 261.05602 82.302775 255.91451 82.311496 250.77344 82.650391 C 246.50878 82.931513 240.99383 83.50366 238.51758 83.921875 C 236.04132 84.34009 231.07636 85.448385 227.48438 86.384766 C 223.8924 87.321147 218.82718 88.855601 216.22852 89.796875 C 213.62986 90.738149 208.67781 92.781614 205.22461 94.337891 C 201.7714 95.894169 196.74068 98.410994 194.04492 99.929688 C 191.34915 101.44838 186.63264 104.34301 183.56445 106.36328 C 180.49625 108.38355 175.96062 111.56163 173.48438 113.42383 C 171.00811 115.28602 166.48046 119.02037 163.42383 121.72266 C 160.3672 124.42496 154.56709 130.03325 150.5332 134.18555 C 146.49931 138.33784 142.07704 143.08228 140.70703 144.72852 C 138.98744 146.79482 138.2168 148.16844 138.2168 149.16406 C 138.2168 149.95728 138.43136 151.17029 138.69336 151.85938 C 138.95535 152.54847 140.8124 154.98075 142.82031 157.26562 C 144.82821 159.5505 148.94613 163.98139 151.97266 167.11133 C 154.9992 170.24126 159.95198 174.98777 162.97852 177.66016 C 166.00505 180.33255 170.24422 183.90939 172.39844 185.60938 C 174.55267 187.30935 179.16816 190.59395 182.6543 192.9082 C 186.14043 195.22245 191.35518 198.36024 194.24414 199.88086 C 197.13311 201.40148 201.63618 203.53312 204.25 204.61719 C 206.86383 205.70125 212.19982 207.61517 216.10742 208.87109 C 220.01502 210.12702 226.54184 211.82679 230.61328 212.64844 C 234.68473 213.47008 240.15571 214.3821 242.76953 214.67383 C 245.38336 214.96556 248.19606 215.29935 249.02148 215.41602 C 249.8469 215.53272 254.7997 215.5436 260.02734 215.43945 C 265.25499 215.33529 272.13575 214.90289 275.31641 214.48047 C 278.49708 214.05805 283.78716 213.16064 287.07227 212.48633 C 290.35738 211.81203 295.07061 210.67709 297.54688 209.96289 C 300.02312 209.24869 304.5262 207.75936 307.55273 206.6543 C 310.57927 205.54923 316.45491 202.97136 320.61133 200.92578 C 324.76776 198.88019 331.23936 195.17197 334.99219 192.68555 C 338.74503 190.19912 344.12413 186.31961 346.94531 184.06445 C 349.76648 181.80929 356.48612 175.56866 361.87695 170.19531 C 367.26779 164.82196 373.40109 158.42891 375.50781 155.98828 C 378.83279 152.13627 379.33789 151.29869 379.33789 149.64648 C 379.33789 147.94545 378.84052 147.19411 374.6543 142.57812 C 372.07805 139.73739 366.39445 133.92046 362.02344 129.65039 C 357.65242 125.38032 351.82367 120.01275 349.07227 117.72266 C 346.32088 115.43257 342.17274 112.18544 339.85352 110.50586 C 337.5343 108.82627 332.80636 105.67249 329.34766 103.49805 C 325.88895 101.32362 320.13345 98.129192 316.55664 96.400391 C 312.97982 94.671589 307.01516 92.122097 303.30078 90.734375 C 299.5864 89.346653 293.95707 87.527222 290.79297 86.691406 C 287.62886 85.85559 282.45121 84.707611 279.28711 84.140625 C 276.12301 83.573639 270.15834 82.892298 266.03125 82.625 z M 234.89648 104.27344 C 235.21947 104.3811 233.80272 105.60846 231.74805 107 C 229.69337 108.39154 226.51202 110.90836 224.67969 112.59375 C 222.84737 114.27915 220.23013 117.1776 218.86328 119.0332 C 217.49644 120.8888 215.66908 123.67239 214.80273 125.2207 C 213.93637 126.76901 212.66491 129.47125 211.97656 131.22461 C 211.28822 132.97797 210.28084 136.5871 209.73828 139.24414 C 209.19329 141.91306 208.75291 146.05414 208.75391 148.49805 C 208.75495 150.93108 209.06937 154.83515 209.45312 157.17383 C 209.83689 159.51251 210.65491 162.88932 211.27148 164.67773 C 211.88806 166.46614 213.01918 169.16837 213.7832 170.68164 C 214.54721 172.19491 216.18324 174.87482 217.41992 176.63867 C 218.6566 178.40252 221.32062 181.52081 223.33984 183.56836 C 225.35906 185.61591 228.36283 188.2534 230.01367 189.42969 C 231.66451 190.60598 234.30857 192.2944 235.89062 193.17969 C 237.47267 194.06497 238.76758 194.87893 238.76758 194.99023 C 238.76758 195.10156 237.58512 195.18122 236.14062 195.16602 C 234.69614 195.15087 231.92438 194.72073 229.98047 194.21094 C 228.03656 193.70115 224.65974 192.6726 222.47656 191.92578 C 220.29338 191.17895 215.77369 189.34317 212.43359 187.8457 C 209.0935 186.34822 203.92792 183.76951 200.95312 182.11523 C 197.97834 180.46094 193.73202 177.79903 191.51758 176.19922 C 189.30314 174.5994 185.01481 171.15687 181.98828 168.54883 C 178.96174 165.94078 173.50302 160.74706 169.85742 157.00781 C 166.21183 153.26855 163.22852 149.87549 163.22852 149.46875 C 163.22852 149.06202 165.87453 146.14946 169.10742 142.99609 C 172.34031 139.84272 176.78521 135.73918 178.98633 133.87695 C 181.18744 132.01473 185.46566 128.63401 188.49219 126.36328 C 191.51872 124.09254 195.99566 120.97968 198.44141 119.44727 C 200.88716 117.91487 205.50266 115.32949 208.69727 113.70117 C 211.89188 112.07285 216.7698 109.83924 219.53906 108.73633 C 222.30832 107.63342 226.7646 106.13354 229.44141 105.4043 C 232.11822 104.67506 234.57349 104.16578 234.89648 104.27344 z M 281.625 104.28516 C 281.8965 104.19466 284.80203 104.89556 288.08203 105.8418 C 291.36202 106.78804 296.75055 108.70687 300.05664 110.10547 C 303.36272 111.50408 308.51039 114.00566 311.49609 115.66602 C 314.48179 117.32637 319.12542 120.13514 321.81445 121.9082 C 324.50348 123.68126 328.99677 126.91886 331.80078 129.10156 C 334.60479 131.28427 339.52606 135.43838 342.73633 138.33398 C 345.9466 141.22959 349.90632 144.95341 351.53516 146.60938 L 354.49609 149.62109 L 353.08789 151.65234 C 352.31341 152.76991 349.39765 155.87752 346.60938 158.55664 C 343.8211 161.23575 338.77693 165.85688 335.40039 168.82617 C 332.02386 171.79546 327.43482 175.58018 325.20117 177.23633 C 322.96752 178.89248 319.23136 181.37399 316.89844 182.75195 C 314.56551 184.1299 310.49533 186.22704 307.85352 187.41211 C 305.21171 188.59718 300.5734 190.36241 297.54688 191.33398 C 294.52033 192.30555 289.90485 193.5573 287.29102 194.11523 C 284.6772 194.67316 281.13173 195.28573 279.41211 195.47656 C 277.69249 195.66737 276.28711 195.68478 276.28711 195.51562 C 276.28711 195.34648 277.69249 194.49877 279.41211 193.63281 C 281.13173 192.76685 283.54559 191.36905 284.77539 190.52539 C 286.00519 189.68174 288.78724 187.42566 290.95703 185.51367 C 293.12682 183.60167 296.17821 180.43193 297.73828 178.46875 C 299.29835 176.50557 301.51277 173.09411 302.66016 170.88867 C 303.80756 168.68323 305.36093 164.86501 306.11133 162.40234 C 307.36547 158.28643 307.47882 157.21718 307.51172 149.16992 C 307.54314 141.48246 307.40443 139.89774 306.38086 136.16406 C 305.73976 133.82551 304.46708 130.29344 303.55273 128.31445 C 302.63838 126.33546 300.80077 123.18365 299.46875 121.31055 C 298.13672 119.43745 295.37156 116.14324 293.32227 113.99219 C 291.27298 111.84113 287.69104 108.81446 285.36328 107.26562 C 283.03552 105.71679 281.3535 104.37566 281.625 104.28516 z M 257.52734 130.02344 C 259.92081 130.03059 261.95075 130.38703 263.94336 131.14844 C 265.94705 131.91408 267.76079 133.14559 269.74219 135.08789 C 271.82706 137.13163 272.92378 138.71477 273.70508 140.80859 C 274.34859 142.53317 274.78516 144.86222 274.78516 146.56641 C 274.78516 148.13996 274.56229 150.20551 274.28906 151.1582 C 274.01583 152.11088 273.09376 153.91159 272.24023 155.1582 C 271.38669 156.40481 269.73616 158.15157 268.57227 159.04102 C 267.40839 159.93048 265.48128 161.00192 264.29102 161.42188 C 263.10077 161.84181 260.979 162.28585 259.57617 162.4082 C 258.17335 162.53056 256.18134 162.41851 255.14844 162.16016 C 254.11555 161.90181 252.18848 161.1432 250.86523 160.47266 C 249.54198 159.80212 247.6039 158.30548 246.55859 157.14844 C 245.51327 155.9914 244.17714 154.00423 243.58984 152.73242 C 242.75901 150.93326 242.52551 149.47639 242.53711 146.16797 C 242.5499 142.52711 242.75118 141.51991 243.94336 139.16406 C 244.70916 137.65079 246.26489 135.46191 247.39844 134.29883 C 248.532 133.13575 250.48642 131.69655 251.74219 131.09961 C 253.42069 130.30172 254.95303 130.01544 257.52734 130.02344 z M 413.54297 209.86328 C 412.63033 210.01138 410.83551 210.8551 409.55469 211.73633 C 408.27387 212.61756 401.34567 218.32083 394.1582 224.41016 C 386.97072 230.49949 378.98543 237.22201 376.41406 239.34961 C 373.8427 241.47721 371.47971 243.2187 371.16211 243.2207 C 370.84451 243.22279 368.67071 243.45527 366.33203 243.73633 C 363.99334 244.01739 356.00103 244.25181 348.57227 244.25781 C 341.14351 244.26394 332.4766 244.03051 329.3125 243.73828 C 326.14839 243.44606 320.98792 242.85769 317.84375 242.43164 C 314.69958 242.0056 310.07653 241.23637 307.57031 240.7207 C 305.0641 240.20503 299.75683 238.96434 295.77734 237.96484 C 291.79785 236.96533 285.39101 235.0526 281.53906 233.71289 C 277.68711 232.37319 271.83487 230.32159 268.5332 229.1543 C 263.71533 227.45097 261.68999 226.99468 258.27734 226.84375 C 254.31013 226.66828 253.63888 226.79416 248.27148 228.73047 C 245.10738 229.87193 240.1546 231.58677 237.26562 232.54102 C 234.37667 233.49527 229.19901 235.05756 225.75977 236.01367 C 222.32052 236.96977 216.58072 238.40209 213.00391 239.19531 C 209.42709 239.98853 203.6873 241.09896 200.24805 241.66406 C 196.80881 242.22916 189.50585 243.14791 184.01953 243.70508 C 178.3976 244.27603 170.5377 244.71498 166.00977 244.70898 C 161.59107 244.70354 154.76507 244.37202 150.83984 243.97266 L 143.70312 243.24609 L 132.82227 233.3457 C 126.83804 227.90009 119.8302 221.64665 117.25 219.44922 C 114.66981 217.2518 111.34749 214.40781 109.86523 213.13086 C 107.85243 211.39683 106.59821 210.72355 104.91211 210.4707 C 103.14163 210.2052 102.17964 210.36242 100.45508 211.19727 C 98.837205 211.98046 97.982823 212.82437 97.224609 214.39062 C 96.657792 215.5615 96.196266 217.18095 96.197266 217.98828 C 96.198294 218.79562 96.630666 220.16415 97.158203 221.0293 C 97.685739 221.89445 98.953694 223.24361 99.976562 224.0293 C 100.99943 224.81499 104.13682 227.37226 106.94922 229.71094 C 109.76163 232.04962 115.86475 237.23394 120.51172 241.23242 C 125.1587 245.2309 130.14146 249.47188 131.58398 250.65625 L 134.20703 252.80859 L 134.14844 266.64844 C 134.11576 274.25958 134.35218 283.30099 134.67383 286.74023 C 134.99548 290.17948 135.81736 296.93311 136.50195 301.74805 C 137.18655 306.56299 138.19261 313.17477 138.73633 316.44141 C 139.28006 319.70804 140.13959 323.31699 140.64648 324.46289 C 141.16315 325.63092 144.69675 329.94668 148.68945 334.2832 C 152.60649 338.53755 158.45067 345.16953 161.67578 349.02148 C 164.9009 352.87343 172.7955 362.77902 179.2207 371.0332 C 185.64589 379.28738 192.37882 387.8399 194.18164 390.04102 C 195.98445 392.24213 200.73272 397.87602 204.73242 402.56055 C 208.73213 407.24507 212.71711 411.973 213.58789 413.06641 L 215.16992 415.05469 L 216.50977 413.80469 C 217.24604 413.11684 218.63428 411.48464 219.5957 410.17773 C 220.55711 408.87081 221.71772 407.81674 222.17578 407.83594 C 222.63384 407.85517 224.58574 410.02252 226.51172 412.65234 C 228.43769 415.28216 233.19443 420.83739 237.08203 424.99805 C 240.96963 429.1587 247.17736 435.54582 250.87891 439.19141 C 255.99278 444.22797 257.91834 445.82031 258.89453 445.82031 C 259.85334 445.82031 260.85356 445.02679 262.83789 442.69336 C 264.30023 440.97374 267.8673 436.99289 270.76562 433.8457 C 273.66395 430.69851 278.62495 425.40662 281.78906 422.08594 C 285.47209 418.22066 288.13763 414.92305 289.19727 412.92383 C 290.10761 411.20629 291.04531 409.80273 291.28125 409.80273 C 291.51718 409.80273 292.67523 410.70217 293.85547 411.80273 C 295.03571 412.90329 296.13288 413.80469 296.29297 413.80469 C 296.45305 413.80469 297.61323 412.73464 298.87109 411.42773 C 300.12895 410.12082 303.55571 406.17842 306.48633 402.66797 C 309.41695 399.15751 313.15826 394.47308 314.80078 392.25781 C 316.4433 390.04254 318.82406 386.32991 320.08984 384.00781 C 321.35562 381.68571 322.60373 379.78711 322.86523 379.78711 C 323.12672 379.78711 323.41802 380.06819 323.51172 380.41211 C 323.60541 380.75603 324.06886 382.35841 324.54102 383.97266 L 325.39844 386.9082 L 327.39453 384.97266 C 328.49174 383.90869 331.358 380.44926 333.76562 377.28516 C 336.17325 374.12105 340.86368 367.7047 344.1875 363.02734 C 347.51132 358.34997 351.97729 352.49773 354.11328 350.02148 C 356.24926 347.54522 360.69489 342.25515 363.99219 338.26562 C 367.2895 334.2761 370.95695 329.99985 372.14062 328.76172 C 373.52849 327.31001 374.7363 325.32767 375.54297 323.17969 C 376.23096 321.34773 377.12003 318.42063 377.51953 316.67578 C 377.91903 314.93093 378.82411 309.90223 379.5293 305.5 C 380.23448 301.09777 381.30014 293.3303 381.89844 288.24023 C 382.74282 281.05663 382.99886 275.92029 383.03906 265.28711 L 383.08984 251.58789 L 389.89258 246.27734 C 393.63419 243.3564 399.93811 238.24862 403.90039 234.92578 C 407.86268 231.60295 412.96487 227.48107 415.23828 225.76758 C 417.51168 224.05408 419.76224 222.05566 420.24023 221.32617 C 420.77972 220.50281 421.10938 219.02804 421.10938 217.4375 C 421.10938 215.40165 420.82261 214.49716 419.70898 213.03711 C 418.93812 212.02646 417.60769 210.83995 416.75391 210.39844 C 415.79204 209.90107 414.57114 209.69643 413.54297 209.86328 z M 258.07422 240.35156 C 259.1947 240.18807 261.88565 241.05218 267.82812 243.48633 C 272.34219 245.33539 279.97608 248.0554 284.79102 249.53125 C 289.60595 251.0071 296.02033 252.77228 299.04688 253.45312 C 302.0734 254.13399 307.36545 255.14303 310.80469 255.69531 C 314.24393 256.24758 319.53401 256.96236 322.56055 257.2832 C 325.58708 257.60404 337.29156 258.00243 348.57227 258.16992 L 369.08398 258.47461 L 369.23828 265.72852 C 369.32315 269.71804 369.14153 275.57223 368.83594 278.73633 C 368.53035 281.90043 367.83422 288.08996 367.28906 292.49219 C 366.7439 296.89442 365.71065 304.16843 364.99219 308.65625 L 363.68555 316.81641 L 354.42773 327.91602 C 349.33576 334.02106 342.04513 343.03563 338.22656 347.94922 C 334.40798 352.86281 330.93904 357.55021 330.51758 358.36523 C 329.93835 359.48534 329.59338 359.71777 329.10742 359.31445 C 328.75382 359.02099 327.96191 356.80901 327.3457 354.40039 C 326.7295 351.99177 326.11033 349.60854 325.9707 349.10352 C 325.73408 348.24767 325.63446 348.26213 324.50391 349.32422 C 323.8368 349.95094 322.63593 351.49014 321.83594 352.74414 C 321.03595 353.99813 318.42803 360.7652 316.04102 367.78125 C 313.654 374.79731 311.23462 381.32412 310.66406 382.28711 C 310.09349 383.2501 307.76652 386.53698 305.49219 389.58984 C 303.21786 392.6427 300.54441 395.85195 299.55273 396.72266 C 298.16314 397.94274 297.54786 398.19826 296.86719 397.83398 C 296.3189 397.54055 295.35934 395.3657 294.33594 392.09766 C 293.42926 389.20232 292.28769 384.5154 291.79883 381.68359 L 290.91016 376.53516 L 289.05078 380.53711 C 288.02842 382.73823 286.2301 387.12887 285.05469 390.29297 C 283.87928 393.45708 282.52801 397.84575 282.05078 400.04688 C 281.57355 402.24799 280.86645 404.95022 280.48047 406.05078 C 280.04774 407.28463 277.91089 410.09566 274.90625 413.38477 C 272.22621 416.31854 267.67223 421.27132 264.78711 424.39062 C 261.90199 427.50992 259.20171 430.10937 258.78516 430.16797 C 258.3686 430.22658 254.27376 426.28762 249.68555 421.41406 C 245.09733 416.54051 240.44166 411.48908 239.33984 410.1875 C 238.23801 408.88592 235.89212 405.95882 234.12695 403.68359 C 232.36179 401.40836 230.35018 398.53305 229.65625 397.29492 C 228.96233 396.05679 227.76196 393.18787 226.99023 390.91797 C 226.2185 388.64807 225.45757 386.80487 225.29883 386.82227 C 225.1401 386.83962 223.83635 388.24695 222.40039 389.94922 C 220.96444 391.6515 219.36556 393.587 218.84961 394.25195 C 218.27201 394.99635 217.6138 395.34593 217.13477 395.16211 C 216.70688 394.99791 213.56724 391.52873 210.1582 387.45117 C 206.74916 383.37361 202.15001 377.78655 199.9375 375.03516 C 197.72499 372.28376 191.11906 363.73206 185.25781 356.0332 C 179.39656 348.33434 173.36092 340.56884 171.8457 338.77539 C 170.33047 336.98194 165.84504 331.94177 161.87695 327.57617 C 157.90886 323.21057 154.13847 318.82189 153.49805 317.82227 C 152.66603 316.5236 152.02429 314.10912 151.25195 309.36328 C 150.65745 305.71028 149.75068 298.61936 149.23633 293.60547 C 148.72199 288.59158 147.91578 278.78857 147.44531 271.82227 C 146.86497 263.2293 146.75412 258.99197 147.09961 258.64648 C 147.44509 258.301 150.40219 258.33521 156.29492 258.75 C 161.49018 259.11571 168.09652 259.22914 172.73438 259.0332 C 176.99904 258.85302 183.18855 258.46617 186.49023 258.17383 C 189.7919 257.88149 196.38797 256.99174 201.14844 256.19727 C 205.90891 255.4028 213.2793 253.94571 217.52734 252.95898 C 221.77539 251.97224 228.91146 250.03427 233.38477 248.65234 C 237.85809 247.27041 244.89439 244.88746 249.02148 243.35742 C 253.14857 241.82738 257.22307 240.47576 258.07422 240.35156 z M 163.92188 282.37891 C 163.81128 282.4895 166.8181 285.60072 170.60352 289.29297 C 174.38895 292.98522 178.79235 297.12931 180.38867 298.50195 C 181.98499 299.87459 186.82535 303.38794 191.14453 306.31055 C 195.46371 309.23316 199.07926 311.6524 199.17969 311.6875 C 199.28012 311.72264 198.96793 311.13358 198.48633 310.37695 C 198.00473 309.62031 196.34753 307.20971 194.80273 305.02148 C 193.25792 302.83325 190.45261 299.40938 188.57031 297.41211 C 186.688 295.41485 183.42557 292.67679 181.31836 291.32617 C 179.21115 289.97555 174.47952 287.36392 170.80469 285.52344 C 167.12986 283.68295 164.03247 282.26832 163.92188 282.37891 z M 320.15625 286.41992 C 320.04853 286.3122 318.51928 287.94877 316.75781 290.05469 C 314.99634 292.16061 311.80106 295.51341 309.6582 297.50586 C 307.51534 299.49831 304.36534 301.87303 302.65625 302.7832 C 300.94717 303.69337 298.37988 305.60375 296.95312 307.0293 C 295.52639 308.45485 293.19856 311.39448 291.7793 313.5625 C 290.36003 315.73051 288.12095 319.75642 286.80273 322.50781 C 285.4845 325.25921 283.47241 330.15169 282.33203 333.38086 C 281.19164 336.61003 279.79992 340.32414 279.23828 341.63477 C 278.25299 343.93406 278.41189 343.81206 283.81055 338.12695 C 287.89141 333.82956 290.74181 331.3555 294.33789 328.98438 C 297.04964 327.19632 299.81229 325.00794 300.47852 324.12109 C 301.14475 323.23425 302.49484 320.89712 303.47852 318.92773 C 304.60839 316.66566 305.87236 314.93204 306.91016 314.2207 C 307.81368 313.6014 309.30302 312.39742 310.2207 311.54688 C 311.13837 310.69633 312.18195 309.43785 312.53906 308.75 C 312.89617 308.06216 313.47604 306.14889 313.82812 304.49805 C 314.18021 302.84721 315.79215 298.14881 317.41016 294.05664 C 319.02818 289.96448 320.26397 286.52764 320.15625 286.41992 z "
       xlink:href="#path1"
       id="path4"
       inkscape:href="#path1"
       d="m 258.44141,68.921875 c -2.84077,0.0048 -5.69769,0.100731 -8.55469,0.289062 -4.701,0.309886 -9.88621,0.802504 -13.61133,1.431641 -3.41397,0.576586 -8.17425,1.662784 -12.1875,2.708984 -4.0767,1.062742 -8.98442,2.529617 -12.44531,3.783204 -3.3159,1.201069 -8.12695,3.200341 -11.95117,4.923828 -3.94499,1.777912 -8.86313,4.224276 -12.25782,6.136718 -3.21898,1.813451 -7.84749,4.662799 -11.27539,6.919922 -3.39481,2.23533 -7.86035,5.358606 -10.76758,7.544926 -3.08617,2.32084 -7.49851,5.97722 -10.88671,8.97265 -3.65021,3.22707 -9.32432,8.73501 -13.63086,13.16797 -4.17876,4.30141 -8.17072,8.49245 -10.51758,11.3125 -2.3313,2.80135 -5.60742,5.10552 -5.60742,13.05078 0,3.22184 0.0976,4.16891 1.35742,7.48242 1.00843,2.65241 1.41311,2.84002 1.88281,3.53907 0.4697,0.69904 0.91834,1.30949 1.4082,1.95117 0.97973,1.28335 2.09749,2.64359 3.30664,4.01953 2.33599,2.65822 6.38971,7.00894 9.5879,10.31641 3.40067,3.51684 8.28046,8.19896 11.77343,11.2832 3.23433,2.85587 7.36921,6.35742 9.99024,8.42578 2.87529,2.26899 7.33563,5.41487 11.15039,7.94727 3.96868,2.63459 9.03037,5.70385 12.76562,7.66992 3.40274,1.79104 7.79057,3.8773 11.11914,5.25781 3.42365,1.41993 8.59451,3.25405 12.89649,4.63672 2.23882,0.71957 4.94716,1.28092 7.60937,1.98047 -3.13749,0.82248 -6.98237,1.81298 -9.50781,2.37304 -3.19734,0.70907 -9.00391,1.83199 -12.02344,2.32813 -2.7339,0.44921 -10.20531,1.40345 -15.40625,1.93164 -5.0569,0.51357 -12.99398,0.93841 -16.63086,0.93359 a 13.469128,13.469128 0 0 0 -0.002,0 c -3.76215,-0.005 -10.71456,-0.34983 -13.82227,-0.66601 l -2.71875,-0.27735 -7.59765,-6.9121 c -6.05929,-5.51392 -12.88616,-11.61906 -15.9043,-14.18946 -2.55787,-2.17841 -5.89172,-5.03182 -7.32617,-6.26758 -2.80276,-2.41458 -7.56108,-5.1478 -11.74609,-5.77539 -3.2492,-0.48724 -9.428576,0.52011 -12.324223,1.92188 -3.359112,1.62668 -7.824171,6.01777 -9.484375,9.44726 -1.439622,2.97385 -2.378479,3.52201 -2.371093,9.48438 0.0071,5.59641 0.81844,6.57275 2.929687,10.03516 2.281311,3.74131 3.447704,4.62047 6.113281,6.66796 0.377699,0.29012 3.82702,3.08109 6.564454,5.35743 2.653899,2.20687 8.800119,7.42511 13.390629,11.375 4.68604,4.03209 9.43527,8.08497 11.30859,9.62304 l -2.32422,-1.9082 -0.0312,7.43555 c -0.034,7.93519 0.11362,16.3939 0.58203,21.40234 0.3675,3.92949 1.18411,10.58509 1.9043,15.65039 0.70157,4.93434 1.69801,11.49201 2.2832,15.00781 0.32869,1.97472 0.7269,3.92831 1.15235,5.71485 0.42544,1.78654 0.49637,2.7639 1.72656,5.54492 1.18467,2.6777 1.68067,2.99122 2.36523,3.92578 0.68477,0.93484 1.42033,1.86776 2.25,2.88086 1.65934,2.02621 3.67262,4.33789 5.83594,6.6875 3.71436,4.03422 9.59963,10.71598 12.56836,14.26172 2.87408,3.43269 10.89546,13.48279 17.24414,21.63867 6.45661,8.29454 12.94441,16.55277 15.16797,19.26758 2.00987,2.45392 6.68418,7.99367 10.72851,12.73047 3.96243,4.64085 8.37946,9.92249 8.5625,10.15234 l 1.57813,1.98242 a 13.469128,13.469128 0 0 0 16.01562,3.375 c 2.10105,2.45872 4.37189,4.99889 6.59571,7.37891 4.0762,4.3625 10.2443,10.71208 14.18554,14.59375 2.65349,2.61337 4.51768,4.40673 6.42774,5.98633 1.91006,1.57959 3.22818,4.51562 11.03906,4.51562 4.19476,0 8.00912,-2.06224 9.95508,-3.60547 1.94596,-1.54322 3.02051,-2.82213 4.24805,-4.26562 1.10545,-1.29995 4.77941,-5.41443 7.57421,-8.44922 2.80677,-3.04777 7.78264,-8.35461 10.86719,-11.5918 1.44882,-1.52051 2.60482,-2.8226 3.79492,-4.16211 0.36328,0.0113 0.53927,0.0586 0.95899,0.0586 7.52209,0 6.66958,-1.72663 7.38672,-2.1875 0.71713,-0.46087 1.03045,-0.7193 1.32031,-0.95117 0.57972,-0.46375 0.92653,-0.78187 1.30078,-1.12696 0.7485,-0.69017 1.4834,-1.41938 2.27344,-2.24023 2.16717,-2.25168 5.18846,-5.80148 8.25,-9.46875 3.09422,-3.70643 6.73492,-8.2412 8.79492,-11.01953 0.0376,-0.0508 0.0697,-0.11491 0.10742,-0.16602 a 13.469128,13.469128 0 0 0 9.04688,-3.53711 l 1.99609,-1.93555 c 3.15601,-3.06039 5.05267,-5.70057 7.71484,-9.19921 2.61645,-3.43854 7.26115,-9.79988 10.68165,-14.61329 3.0968,-4.3579 7.799,-10.4499 9.14453,-12.00976 2.29552,-2.66123 6.70263,-7.90742 10.0625,-11.97266 3.18388,-3.85227 7.41977,-8.69138 7.50195,-8.77734 2.92273,-3.05717 4.87197,-6.41729 6.27539,-10.1543 1.00541,-2.67718 1.85969,-5.44436 2.49805,-8.23242 0.66826,-2.91868 1.44319,-7.45311 2.17968,-12.05078 0.76136,-4.75288 1.81601,-12.46451 2.44532,-17.81836 0.89442,-7.60932 1.19146,-13.64163 1.23242,-24.47461 l 0.0273,-7.1582 1.64649,-1.28711 c 3.96084,-3.09209 10.23045,-8.1708 14.375,-11.64649 3.80236,-3.18871 9.0714,-7.42803 10.78906,-8.72265 1.44054,-1.08576 2.7893,-2.18995 4.01172,-3.27539 1.22242,-1.08544 1.69066,-0.78707 4.15039,-4.54102 3.20153,-4.88612 3.07226,-7.81808 3.07226,-11.26953 0,-3.30057 -2.09608,-9.86221 -4.16015,-12.56836 -2.21996,-2.91052 -2.9506,-4.0921 -7.47852,-6.43359 -3.75327,-1.94077 -7.14385,-2.58102 -11.55468,-1.86524 -6.13992,0.99637 -6.65084,2.13422 -9.46485,4.07031 -2.47584,1.70344 -3.55359,2.7322 -6.4082,5.08204 -2.85461,2.34984 -6.4187,5.32833 -10.0586,8.41211 -7.16377,6.06924 -15.23782,12.86269 -17.625,14.83789 -0.59672,0.49374 -1.01652,0.80354 -1.53906,1.21289 -0.53192,0.0609 -0.99303,0.11101 -1.56445,0.17968 0.38951,-0.0468 -9.01082,0.41806 -16.16406,0.42383 -7.13799,0.006 -16.43431,-0.31543 -18.00977,-0.46094 -2.85094,-0.26329 -8.06242,-0.85789 -10.89844,-1.24218 -2.74737,-0.37228 -7.47363,-1.16703 -9.36718,-1.55664 -2.00568,-0.41268 -7.43706,-1.67517 -11.22657,-2.62696 -0.69438,-0.1744 -1.80335,-0.55687 -2.71093,-0.80859 1.70372,-0.41835 3.56013,-0.79584 4.93164,-1.19141 3.08909,-0.89096 7.48528,-2.35357 10.89257,-3.59765 4.09004,-1.49338 9.74066,-4.00837 14.38672,-6.29492 4.97278,-2.44736 11.31701,-6.07908 15.87305,-9.09766 4.19028,-2.77625 9.46506,-6.5633 12.92383,-9.32813 4.13944,-3.30894 10.36792,-9.20659 16.0293,-14.84961 5.55631,-5.53828 11.36463,-11.52342 14.31835,-14.94531 1.75757,-2.03615 3.00835,-3.37211 4.4961,-5.83594 1.48775,-2.46382 2.60742,-7.10811 2.60742,-9.30664 0,-2.16314 -1.37229,-7.40154 -3.01367,-9.8789 -1.64139,-2.47737 -3.00303,-3.85559 -5.16211,-6.23633 -3.05187,-3.36518 -8.62538,-9.04927 -13.19531,-13.51367 -4.61654,-4.50992 -10.23198,-9.71993 -13.74805,-12.64649 -3.05592,-2.54355 -7.11448,-5.73183 -9.93359,-7.773434 -2.87499,-2.082081 -7.49388,-5.147894 -11.23829,-7.501953 -4.12649,-2.594253 -9.76496,-5.726164 -14.09765,-7.820312 -4.1877,-2.02406 -10.05199,-4.530195 -14.4043,-6.15625 -4.27816,-1.598354 -9.76466,-3.388214 -13.78125,-4.449219 -3.7276,-0.984666 -8.81036,-2.111397 -12.57031,-2.785156 -4.21274,-0.754895 -9.99486,-1.390612 -14.75977,-1.699219 -2.79402,-0.180957 -5.62017,-0.268428 -8.46093,-0.263672 z M 280.49414,117.75 c 0.28347,0.0607 2.29142,0.63629 1.0332,0.27539 -0.65763,-0.0328 -0.8954,-0.16949 -1.0332,-0.27539 z m -84.06055,19.49805 c -0.71956,3.717 -1.15,7.42751 -1.14843,11.25586 0.002,3.58716 0.29574,7.30951 0.87695,10.85156 0.23132,1.40964 0.70117,2.76254 1.01172,4.13281 -1.99929,-1.55657 -4.39256,-3.41742 -6.39453,-5.14258 -1.92882,-1.66211 -5.8754,-5.48147 -9.08399,-8.65039 2.31942,-2.16775 4.95938,-4.66496 5.99024,-5.53711 1.73968,-1.47183 5.97631,-4.82492 8.74804,-6.91015 z m 123.79493,0.10351 c 1.21842,0.89111 2.43323,1.70316 3.29882,2.37696 2.29539,1.78678 7.3053,6.00401 10.18946,8.60546 0.75126,0.67763 1.21142,1.14999 2.0332,1.91016 -2.70763,2.55031 -6.52539,6.07791 -9.24414,8.46875 -2.37484,2.08842 -5.0665,4.24604 -7.1582,5.91406 1.05008,-4.01123 1.60141,-8.20065 1.63086,-15.40234 0.0212,-5.19383 -0.27484,-8.71218 -0.75,-11.87305 z m -62.76758,6.13477 c 0.0306,2.7e-4 -0.008,0.004 0.0254,0.004 1.07914,0.003 1.19755,0.0652 1.65039,0.23829 0.037,0.0141 0.0981,-0.0818 1.17773,0.97656 1.28808,1.26267 0.65796,0.50301 0.77344,0.8125 -0.0475,-0.12716 0.22852,1.6447 0.22852,1.04883 0,0.0933 -0.0753,0.49776 -0.13477,0.83789 -0.009,0.0248 -0.0553,0.14536 -0.0547,0.14453 0.40567,-0.59249 -1.44686,1.33699 -0.73242,0.79101 0.38892,-0.29721 -1.87034,0.83473 -0.58398,0.38086 0.73631,-0.25978 -1.64032,0.29207 -1.4043,0.27149 0.18132,-0.0158 -0.24159,-0.0956 -0.54102,-0.13672 -0.4311,-0.17238 -0.7414,-0.30998 -0.91211,-0.39649 1.15471,0.58514 -1.03342,-1.04053 -0.40039,-0.33984 0.23469,0.25976 -0.64634,-1.07288 -0.64062,-0.89844 0.0405,-0.0685 0.0884,-0.0326 0.0918,-1.00586 0.002,-0.57696 -0.041,-0.73591 -0.0801,-0.92773 0.0199,-0.0359 0.0145,0.004 0.0371,-0.041 -0.18978,0.37501 1.54446,-2.02135 1.08203,-1.54687 -0.12947,0.13283 0.19008,-0.0745 0.41797,-0.21289 z m -81.58008,11.85156 c -0.17854,0.32276 -0.27701,0.34052 -0.44922,0.45898 0.11827,-0.12713 0.3171,-0.31935 0.44922,-0.45898 z m 195.17969,74.41797 c -3.18729,0.022 -2.03571,0.12502 -2.98633,0.22656 -0.25337,0.0271 -0.60794,0.0704 -0.88867,0.10156 0.8175,-0.17469 1.92376,-0.31489 3.875,-0.32812 z m -114.03711,24.01172 c 0.0217,0.007 0.11381,0.0452 0.13672,0.0527 -0.66105,-0.0804 -0.66628,-0.22289 -0.13672,-0.0527 z m 1.42187,0.54492 c 1.06718,0.3829 2.1545,0.76716 4.27735,1.63672 5.15554,2.11182 12.68667,4.79325 18.12109,6.45898 5.14239,1.57622 11.33381,3.30307 15.24805,4.1836 3.52653,0.79335 8.73876,1.78386 12.57812,2.40039 3.77771,0.60662 8.99495,1.31513 12.4707,1.68359 5.48404,0.58136 15.77301,0.7908 27.23243,0.96094 l 7.22851,0.10742 c -0.0693,2.17598 -0.0712,4.65505 -0.17187,5.69727 -0.27901,2.8889 -0.97807,9.13452 -1.50586,13.39648 -0.51246,4.13818 -1.55248,11.45445 -2.23047,15.68945 l -0.7207,4.50586 -6.88672,8.25586 c -4.32125,5.18098 -9.53825,11.68543 -13.65821,16.88867 -2.35759,-0.84814 -4.93443,-1.29035 -6.85546,-1.00195 -5.04193,0.75693 -5.9833,2.37037 -6.79883,3.02149 -0.81554,0.65111 -1.14678,0.98788 -1.49024,1.31054 -2.80881,2.63875 -3.40158,3.79891 -4.80078,5.99219 -1.36947,2.14666 -1.43842,2.67617 -1.93359,3.83203 -0.49517,1.15586 -1.01601,2.459 -1.58203,3.92774 -1.13204,2.93747 -2.42583,6.50964 -3.67578,10.18359 -0.69013,2.02845 -1.29351,3.67223 -1.9375,5.47656 a 13.469128,13.469128 0 0 0 -22.65625,1.94141 l -1.85938,4.00195 a 13.469128,13.469128 0 0 0 -0.002,0 c -1.36301,2.93452 -3.0856,7.18515 -4.40625,10.74024 -1.41771,3.81635 -2.73379,7.86666 -3.54102,11.58984 -0.29715,1.37056 -0.71605,2.82827 -0.88086,3.4668 -0.0386,0.0588 -0.0298,0.0808 -0.0723,0.13671 -0.62114,0.8172 -1.68665,2.09614 -2.97266,3.50391 -1.67283,1.8312 -4.07133,4.43255 -6.35937,6.91797 -4.18813,-4.47793 -8.87839,-9.60722 -8.98438,-9.73242 -0.75912,-0.89674 -3.19962,-3.92932 -4.85156,-6.0586 -1.43431,-1.84877 -3.74879,-5.40463 -3.36328,-4.71679 0.40559,0.72369 -1.14716,-2.61426 -1.66211,-4.12891 -0.46249,-1.36032 -0.90895,-2.57087 -1.37891,-3.70898 -0.23498,-0.56906 -0.44294,-1.07609 -0.86133,-1.89063 -0.20919,-0.40727 -0.40576,-0.8455 -1.11133,-1.8457 -0.35278,-0.5001 -0.76247,-1.1464 -2.02148,-2.28516 -1.25901,-1.13876 -3.83742,-4.15039 -10.53711,-3.41601 -4.39661,0.48152 -4.97553,1.52266 -5.73047,1.99609 -0.13461,0.0844 -0.13738,0.10436 -0.24804,0.17773 -2.77182,-3.34563 -5.88496,-7.10485 -7.41993,-9.01367 -1.87616,-2.33313 -8.64235,-11.07788 -14.46093,-18.7207 -5.91656,-7.7715 -11.33461,-14.82576 -13.83985,-17.79102 -1.94345,-2.3003 -6.2484,-7.12096 -10.28906,-11.5664 -1.90122,-2.09168 -3.77264,-4.21044 -5.1875,-5.85742 -0.42655,-0.49653 -0.77665,-0.96815 -1.16797,-1.47461 -0.19844,-0.65785 -0.61203,-1.95038 -0.94336,-3.98633 -0.19418,-1.1932 -0.46951,-3.76744 -0.74219,-5.82031 2.89796,2.78885 5.94992,5.73911 7.80469,7.33398 3.18699,2.74042 7.3899,5.6391 11.99024,8.75195 2.17568,1.4722 4.17138,2.81694 5.65625,3.81055 0.74243,0.49681 1.35395,0.90333 1.82031,1.21094 0.23318,0.1538 0.42313,0.27888 0.62109,0.40625 0.099,0.0637 0.19109,0.12364 0.36133,0.22851 0.0851,0.0524 0.18072,0.11046 0.39648,0.23438 0.21577,0.12391 -0.43593,0.0946 2.28321,1.04492 1.13025,0.39529 2.71858,0.84963 5.0664,0.74219 1.17495,-0.0538 3.94044,-0.77895 3.94141,-0.7793 9.7e-4,-3.5e-4 4.02071,-2.28842 4.02148,-2.28906 7.8e-4,-6.4e-4 2.14813,-2.13476 2.83399,-3.22656 0.68585,-1.09181 1.1216,-2.12173 1.41211,-3.01954 0.58101,-1.79561 0.64523,-3.07007 0.6543,-4.02929 0.0362,-3.83691 -0.59623,-4.16114 -0.83399,-4.8125 -0.47552,-1.30273 -0.67341,-1.57252 -0.87695,-1.95703 -0.40708,-0.76903 -0.72435,-1.28293 -1.10742,-1.88477 -1.03871,-1.63191 -2.42776,-3.60266 -4.04297,-5.89062 -2.15786,-3.05662 -4.86309,-6.35062 -7.4336,-9.07813 -2.99586,-3.17881 -6.03284,-5.78244 -9.78515,-8.1875 -3.17797,-2.03692 -7.65275,-4.45381 -11.75,-6.50586 -0.83734,-0.41937 -1.4665,-0.70577 -2.23047,-1.07617 4.34909,-0.20297 9.67585,-0.51568 13.07226,-0.81641 4.12335,-0.36509 10.54503,-1.25115 15.6875,-2.10937 5.17142,-0.86305 12.46304,-2.29996 17.20899,-3.40235 4.79577,-1.11396 11.8452,-3.0325 16.78515,-4.55859 4.83964,-1.49509 11.81204,-3.85511 16.34375,-5.53516 1.71349,-0.63524 3.35629,-1.20472 4.74219,-1.67187 z m 61.69336,18.63477 c -2.45296,6.6e-4 -3.79047,0.50329 -4.75,0.86328 -1.91906,0.71998 -2.49654,1.22381 -3.01562,1.58398 -1.03817,0.72034 -1.336,1.03992 -1.66407,1.3418 -0.65613,0.60375 -1.03374,1.00717 -1.4707,1.47461 -0.87392,0.93486 -1.80077,1.99588 -2.81055,3.20312 -1.13239,1.35384 -4.42492,4.8203 -5.93945,6.22852 -1.23085,1.14445 -4.97156,3.68497 -4.16211,3.2539 -3.67122,1.95511 -6.00725,3.7226 -8.89258,6.60547 -2.79392,2.79162 -4.86201,5.53702 -6.92187,8.6836 -2.04876,3.12959 -4.1815,7.00999 -5.85547,10.5039 -1.6989,3.54594 -3.64901,8.31512 -5.02344,12.20703 -1.07447,3.04252 -2.66745,7.18627 -2.77344,7.4336 -0.28095,0.65565 -0.62769,0.11451 -1.3457,4.18945 -0.1795,1.01874 -0.70078,2.43283 0.26172,5.98633 0.9625,3.5535 7.03493,9.49762 11.8125,9.93945 4.77758,0.44183 6.4819,-0.92502 7.62695,-1.52734 1.14506,-0.60232 1.67369,-1.02016 2.11328,-1.35742 3.51676,-2.69811 3.53641,-3.30464 6.24805,-6.16016 3.70185,-3.89827 5.44356,-5.37035 8.17578,-7.17187 1.70917,-1.12698 3.32301,-2.29897 4.78516,-3.45704 1.46215,-1.15806 2.20167,-1.22294 4.70898,-4.56054 2.24309,-2.98584 2.99965,-4.69977 4.28125,-7.26563 0.56485,-1.13086 2.17085,-1.78997 -1.00195,0.38477 1.92483,-1.31934 3.25105,-2.42464 4.84961,-3.90625 2.04179,-1.89245 2.91141,-2.22008 5.11719,-6.46875 2.3159,-4.46072 1.96929,-5.12342 2.50781,-7.64844 -0.30968,1.45199 1.48705,-4.64032 2.93359,-8.29883 0.85196,-2.1547 1.60101,-4.12488 2.16993,-5.70703 0.28445,-0.79107 0.51797,-1.45701 0.74609,-2.18359 0.11406,-0.3633 0.22396,-0.69413 0.39062,-1.39649 0.0833,-0.35117 0.19461,-0.73303 0.3086,-1.76953 0.057,-0.51825 0.14965,-1.16755 0.0391,-2.57031 -0.11059,-1.40276 0.3982,-4.17797 -3.9082,-8.48438 -2.91878,-2.91877 -7.08805,-3.94988 -9.54102,-3.94921 z m -0.6289,77.71875 c -0.24324,0.33661 -0.34465,0.3332 -0.95508,1.51367 0.0218,-0.0421 0.22685,-0.61862 0.95508,-1.51367 z m 21.1582,1.32031 c 0.34322,0.60674 0.28522,0.8616 0.30469,1.01367 -0.0725,-0.20796 -0.19427,-0.64409 -0.30469,-1.01367 z M 225.0957,384.10937 c 0.53325,0.3998 0.61017,0.62039 0.6836,0.73243 -0.13434,-0.13864 -0.40548,-0.43131 -0.6836,-0.73243 z" /><path
       style="fill:#000000"
       d="m 250.87963,439.1918 c -3.70155,-3.64559 -9.91085,-10.03253 -13.79845,-14.19318 -3.8876,-4.16066 -8.64416,-9.7165 -10.57013,-12.34632 -1.92598,-2.62982 -3.87655,-4.79721 -4.33461,-4.81644 -0.45806,-0.0192 -1.61945,1.03433 -2.58086,2.34125 -0.96142,1.30691 -2.35044,2.93898 -3.08671,3.62683 l -1.33869,1.25064 -1.58324,-1.98801 c -0.87078,-1.09341 -4.85573,-5.8208 -8.85544,-10.50532 -3.9997,-4.68453 -8.74723,-10.31823 -10.55004,-12.51934 -1.80282,-2.20112 -8.53483,-10.75545 -14.96002,-19.00963 -6.4252,-8.25418 -14.3209,-18.1592 -17.54602,-22.01115 -3.22511,-3.85195 -9.0687,-10.48438 -12.98574,-14.73873 -3.9927,-4.33652 -7.52684,-8.65061 -8.04351,-9.81864 -0.50689,-1.1459 -1.36647,-4.75616 -1.9102,-8.02279 -0.54372,-3.26664 -1.54871,-9.87884 -2.23331,-14.69378 -0.68459,-4.81494 -1.50789,-11.56836 -1.82954,-15.00761 -0.32165,-3.43924 -0.55807,-12.48046 -0.52539,-20.0916 l 0.0594,-13.83843 -2.62277,-2.15339 c -1.44252,-1.18437 -6.42483,-5.42487 -11.07181,-9.42335 -4.64697,-3.99848 -10.7501,-9.18343 -13.56251,-11.52211 -2.8124,-2.33868 -5.95036,-4.89499 -6.973224,-5.68068 -1.022868,-0.78569 -2.291381,-2.13637 -2.818917,-3.00152 -0.527537,-0.86515 -0.959999,-2.23354 -0.961027,-3.04088 -0.001,-0.80733 0.461889,-2.42588 1.028706,-3.59676 0.758214,-1.56626 1.611739,-2.41023 3.229612,-3.19342 1.72456,-0.83485 2.68613,-0.99149 4.45661,-0.72599 1.6861,0.25285 2.93978,0.92626 4.95258,2.66029 1.48226,1.27695 4.80607,4.11963 7.38626,6.31705 2.5802,2.19743 9.58745,8.45082 15.57168,13.89643 l 10.88041,9.90111 7.13678,0.7261 c 3.92523,0.39936 10.75208,0.73055 15.17078,0.73599 4.52793,0.006 12.38719,-0.43222 18.00912,-1.00317 5.48632,-0.55717 12.78905,-1.4754 16.22829,-2.0405 3.43925,-0.5651 9.17965,-1.67645 12.75647,-2.46967 3.57681,-0.79322 9.31721,-2.22449 12.75646,-3.18059 3.43924,-0.95611 8.61686,-2.51913 11.50582,-3.47338 2.88897,-0.95425 7.84148,-2.66892 11.00558,-3.81038 5.3674,-1.93631 6.03786,-2.06278 10.00507,-1.88731 3.41265,0.15093 5.43732,0.60708 10.25519,2.31041 3.30167,1.16729 9.15464,3.21847 13.00659,4.55817 3.85195,1.33971 10.2595,3.2536 14.23899,4.25311 3.97949,0.9995 9.28598,2.2392 11.79219,2.75487 2.50622,0.51567 7.12926,1.28617 10.27343,1.71221 3.14417,0.42605 8.30548,1.01373 11.46959,1.30595 3.1641,0.29223 11.83099,0.52631 19.25975,0.52018 7.42876,-0.006 15.42031,-0.24111 17.759,-0.52217 2.33868,-0.28106 4.512,-0.51272 4.8296,-0.51481 0.3176,-0.002 2.6813,-1.74456 5.25266,-3.87216 2.57137,-2.1276 10.55587,-8.85054 17.74335,-14.93987 7.18747,-6.08933 14.11608,-11.79251 15.3969,-12.67374 1.28082,-0.88123 3.07547,-1.72341 3.98811,-1.87151 1.02817,-0.16685 2.24981,0.0361 3.21168,0.53347 0.85378,0.44151 2.18303,1.62963 2.95389,2.64028 1.11363,1.46005 1.40155,2.36389 1.40155,4.39974 0,1.59054 -0.32957,3.06521 -0.86906,3.88857 -0.47799,0.72949 -2.72913,2.7283 -5.00253,4.4418 -2.27341,1.71349 -7.37534,5.83413 -11.33763,9.15696 -3.96228,3.32284 -10.26548,8.43138 -14.00709,11.35232 l -6.80295,5.3108 -0.0518,13.69883 c -0.0402,10.63318 -0.29525,15.76992 -1.13963,22.95352 -0.5983,5.09007 -1.6648,12.85651 -2.36998,17.25874 -0.70519,4.40223 -1.60903,9.43166 -2.00853,11.17651 -0.3995,1.74485 -1.28926,4.67133 -1.97725,6.50329 -0.80667,2.14798 -2.01517,4.13027 -3.40303,5.58198 -1.18368,1.23813 -4.84993,5.51529 -8.14724,9.50481 -3.2973,3.98952 -7.74272,9.2797 -9.8787,11.75596 -2.13599,2.47625 -6.60309,8.32922 -9.92691,13.00659 -3.32382,4.67736 -8.01318,11.09311 -10.42081,14.25722 -2.40762,3.1641 -5.27522,6.62343 -6.37243,7.6874 l -1.99493,1.9345 -0.85847,-2.935 c -0.47216,-1.61425 -0.93513,-3.2164 -1.02882,-3.56032 -0.0937,-0.34392 -0.3843,-0.62532 -0.64579,-0.62532 -0.2615,0 -1.51108,1.8999 -2.77686,4.222 -1.26578,2.3221 -3.6453,6.0345 -5.28782,8.24977 -1.64252,2.21527 -5.38418,6.89995 -8.3148,10.41041 -2.93062,3.51045 -6.35755,7.45194 -7.61541,8.75885 -1.25786,1.30691 -2.418,2.3762 -2.57808,2.3762 -0.16009,0 -1.25672,-0.90045 -2.43696,-2.00101 -1.18024,-1.10056 -2.33893,-2.00101 -2.57486,-2.00101 -0.23594,0 -1.17379,1.40525 -2.08413,3.12279 -1.05964,1.99922 -3.72504,5.29509 -7.40807,9.16037 -3.16411,3.32068 -8.12427,8.61256 -11.0226,11.75975 -2.89832,3.14719 -6.46614,7.12913 -7.92848,8.84875 -1.98433,2.33343 -2.98472,3.12658 -3.94353,3.12658 -0.97619,0 -2.90094,-1.5918 -8.01481,-6.62836 z m 13.90779,-14.80106 c 2.88512,-3.1193 7.43843,-8.07181 10.11847,-11.00558 3.00464,-3.28911 5.14185,-6.10129 5.57458,-7.33514 0.38598,-1.10056 1.09224,-3.80193 1.56947,-6.00304 0.47723,-2.20112 1.82939,-6.59084 3.0048,-9.75495 1.17541,-3.1641 2.97359,-7.55382 3.99595,-9.75494 l 1.85883,-4.00202 0.88884,5.14874 c 0.48886,2.83181 1.63067,7.51765 2.53735,10.41299 1.0234,3.26804 1.98342,5.44348 2.53171,5.73691 0.68067,0.36428 1.29666,0.10965 2.68625,-1.11043 0.99168,-0.87071 3.66387,-4.0809 5.9382,-7.13376 2.27433,-3.05286 4.60197,-6.33855 5.17254,-7.30154 0.57056,-0.96299 2.99039,-7.49129 5.37741,-14.50735 2.38701,-7.01605 4.99456,-13.78246 5.79455,-15.03645 0.79999,-1.254 2.00035,-2.79277 2.66746,-3.41949 1.13055,-1.06209 1.23018,-1.07712 1.4668,-0.22127 0.13963,0.50502 0.75804,2.8889 1.37424,5.29752 0.61621,2.40862 1.40969,4.61941 1.76329,4.91287 0.48596,0.40332 0.82997,0.17183 1.4092,-0.94828 0.42146,-0.81502 3.89059,-5.50207 7.70917,-10.41566 3.81857,-4.91359 11.10903,-13.92884 16.201,-20.03388 l 9.25814,-11.10008 1.30629,-8.15968 c 0.71846,-4.48782 1.75233,-11.7615 2.29749,-16.16373 0.54516,-4.40223 1.24123,-10.59287 1.54682,-13.75697 0.30559,-3.1641 0.48617,-9.01707 0.4013,-13.00659 l -0.15431,-7.25367 -20.51039,-0.30453 c -11.28071,-0.16749 -22.98664,-0.56703 -26.01317,-0.88787 -3.02654,-0.32084 -8.31672,-1.03521 -11.75596,-1.58748 -3.43924,-0.55228 -8.72942,-1.56121 -11.75595,-2.24207 -3.02654,-0.68085 -9.44229,-2.44543 -14.25722,-3.92128 -4.81494,-1.47585 -12.44777,-4.19623 -16.96183,-6.04529 -5.94247,-2.43415 -8.63446,-3.2996 -9.75494,-3.13611 -0.85115,0.1242 -4.92426,1.47766 -9.05135,3.0077 -4.12709,1.53004 -11.16379,3.91257 -15.63711,5.2945 -4.47331,1.38193 -11.60897,3.31993 -15.85702,4.30667 -4.24804,0.98673 -11.61864,2.44408 -16.37911,3.23855 -4.76047,0.79447 -11.35676,1.68368 -14.65843,1.97602 -3.30168,0.29234 -9.49231,0.67894 -13.75697,0.85912 -4.63786,0.19594 -11.24451,0.0819 -16.43977,-0.28381 -5.89273,-0.41479 -8.8496,-0.44765 -9.19508,-0.10217 -0.34549,0.34549 -0.23416,4.58226 0.34618,13.17523 0.47047,6.9663 1.27624,16.76827 1.79058,21.78216 0.51435,5.01389 1.42157,12.10498 2.01607,15.75798 0.77234,4.74584 1.41329,7.16064 2.24531,8.45931 0.64042,0.99962 4.41103,5.38934 8.37912,9.75494 3.96809,4.3656 8.45444,9.40482 9.96967,11.19827 1.51522,1.79345 7.55052,9.55988 13.41177,17.25874 5.86125,7.69886 12.46705,16.24906 14.67956,19.00046 2.21251,2.75139 6.81195,8.33871 10.22099,12.41627 3.40904,4.07756 6.54835,7.54809 6.97624,7.71229 0.47903,0.18382 1.13849,-0.16605 1.71609,-0.91045 0.51595,-0.66495 2.11297,-2.60176 3.54892,-4.30404 1.43596,-1.70227 2.7407,-3.10923 2.89943,-3.12658 0.15874,-0.0174 0.92003,1.82565 1.69176,4.09555 0.77173,2.2699 1.97091,5.1401 2.66483,6.37823 0.69393,1.23813 2.70591,4.1127 4.47107,6.38793 1.76517,2.27523 4.11089,5.20171 5.21272,6.50329 1.10182,1.30158 5.75731,6.35397 10.34553,11.22752 4.58821,4.87356 8.68302,8.81305 9.09958,8.75444 0.41655,-0.0586 3.11792,-2.65873 6.00304,-5.77802 z m 14.44995,-82.75511 c 0.56164,-1.31063 1.9542,-5.02501 3.09459,-8.25418 1.14038,-3.22917 3.15197,-8.12235 4.4702,-10.87375 1.31822,-2.75139 3.55798,-6.77636 4.97725,-8.94437 1.41926,-2.16802 3.74781,-5.10821 5.17455,-6.53376 1.42675,-1.42555 3.99243,-3.33659 5.70151,-4.24676 1.70909,-0.91017 4.86069,-3.28505 7.00355,-5.2775 2.14286,-1.99245 5.33732,-5.34567 7.09879,-7.45159 1.76147,-2.10592 3.29081,-3.74082 3.39853,-3.6331 0.10772,0.10772 -1.12797,3.54398 -2.74599,7.63614 -1.61801,4.09217 -3.22991,8.79098 -3.582,10.44182 -0.35209,1.65084 -0.93234,3.56431 -1.28945,4.25215 -0.35711,0.68785 -1.40012,1.94654 -2.31779,2.79709 -0.91768,0.85054 -2.40775,2.05315 -3.31127,2.67245 -1.0378,0.71134 -2.30141,2.44465 -3.43128,4.70672 -0.98368,1.96939 -2.33361,4.30632 -2.99984,5.19316 -0.66623,0.88685 -3.43003,3.0754 -6.14178,4.86345 -3.59608,2.37113 -6.44473,4.8456 -10.52559,9.14299 -5.39866,5.68511 -5.55927,5.80833 -4.57398,3.50904 z m -88.09331,-35.32498 c -4.31918,-2.92261 -9.15913,-6.43691 -10.75545,-7.80955 -1.59632,-1.37264 -5.99956,-5.51664 -9.78499,-9.20889 -3.78542,-3.69225 -6.79211,-6.80367 -6.68151,-6.91426 0.11059,-0.11059 3.20776,1.30477 6.88259,3.14526 3.67483,1.84048 8.4056,4.45138 10.51281,5.802 2.10721,1.35062 5.37137,4.0898 7.25368,6.08706 1.8823,1.99727 4.6863,5.42176 6.23111,7.60999 1.5448,2.18823 3.20277,4.59766 3.68437,5.3543 0.4816,0.75663 0.79347,1.34695 0.69304,1.31181 -0.10043,-0.0351 -3.71647,-2.45511 -8.03565,-5.37772 z m 57.87839,-90.89473 c -0.82542,-0.11667 -3.63934,-0.45082 -6.25317,-0.74255 -2.61382,-0.29173 -8.08358,-1.20268 -12.15503,-2.02432 -4.07144,-0.82165 -10.59974,-2.52148 -14.50734,-3.77741 -3.9076,-1.25592 -9.24331,-3.17046 -11.85714,-4.25452 -2.61382,-1.08407 -7.1161,-3.21518 -10.00507,-4.7358 -2.88896,-1.52062 -8.10495,-4.65824 -11.59108,-6.97249 -3.48614,-2.31425 -8.10097,-5.59862 -10.2552,-7.2986 -2.15422,-1.69998 -6.39302,-5.27738 -9.41955,-7.94977 -3.02654,-2.67239 -7.97904,-7.41976 -11.00558,-10.54969 -3.02653,-3.12994 -7.14562,-7.56025 -9.15352,-9.84512 -2.00791,-2.28487 -3.8651,-4.71812 -4.12709,-5.40722 -0.262,-0.68909 -0.47635,-1.9019 -0.47635,-2.69512 0,-0.99562 0.77134,-2.36908 2.49093,-4.43538 1.37001,-1.64624 5.79139,-6.3905 9.82528,-10.54279 4.03389,-4.1523 9.83523,-9.76061 12.89186,-12.46291 3.05663,-2.70229 7.58353,-6.43688 10.05979,-8.29907 2.47625,-1.8622 7.01262,-5.03876 10.08082,-7.05903 3.06819,-2.02027 7.78416,-4.91579 10.47993,-6.434482 2.69576,-1.518694 7.72674,-4.034579 11.17995,-5.590857 3.4532,-1.556277 8.40473,-3.599729 11.00339,-4.541003 2.59866,-0.941274 7.66373,-2.477538 11.2557,-3.413919 3.59198,-0.936381 8.55689,-2.044686 11.03315,-2.462901 2.47625,-0.418215 7.99155,-0.9904 12.25621,-1.271522 5.14107,-0.338895 10.28249,-0.347365 15.25772,-0.02514 4.12709,0.267298 10.09262,0.949894 13.25672,1.51688 3.1641,0.566986 8.34172,1.714733 11.50583,2.550549 3.1641,0.835816 8.79195,2.655075 12.50633,4.042797 3.71438,1.387722 9.6799,3.937604 13.25672,5.666406 3.57681,1.728801 9.33314,4.922362 12.79185,7.096792 3.4587,2.17444 8.1861,5.32772 10.50532,7.00731 2.31922,1.67958 6.4679,4.9275 9.21929,7.21759 2.7514,2.29009 8.57882,7.65749 12.94984,11.92756 4.37101,4.27007 10.05514,10.08799 12.63139,12.92872 4.18622,4.61598 4.6841,5.36728 4.6841,7.06831 0,1.65221 -0.5054,2.48886 -3.83038,6.34087 -2.10672,2.44063 -8.24107,8.8339 -13.63191,14.20725 -5.39083,5.37335 -12.10975,11.61486 -14.93092,13.87002 -2.82118,2.25516 -8.19992,6.13465 -11.95276,8.62108 -3.75283,2.48642 -10.22404,6.19443 -14.38047,8.24002 -4.15642,2.04558 -10.03338,4.62338 -13.05992,5.72845 -3.02653,1.10506 -7.52881,2.59356 -10.00506,3.30776 -2.47626,0.7142 -7.1901,1.85026 -10.47521,2.52456 -3.28511,0.67431 -8.57529,1.57163 -11.75596,1.99405 -3.18066,0.42242 -10.06019,0.85325 -15.28784,0.95741 -5.22764,0.10415 -10.18015,0.0939 -11.00557,-0.0228 z m 38.26938,-21.30154 c 2.61383,-0.55793 7.22866,-1.80933 10.2552,-2.7809 3.02653,-0.97157 7.66427,-2.73609 10.30608,-3.92116 2.64181,-1.18507 6.71204,-3.28209 9.04497,-4.66004 2.33292,-1.37796 6.06922,-3.86041 8.30287,-5.51656 2.23365,-1.65615 6.82381,-5.4406 10.20034,-8.40989 3.37654,-2.96929 8.42048,-7.59071 11.20876,-10.26982 2.78828,-2.67912 5.70326,-5.7855 6.47774,-6.90307 l 1.40814,-2.03195 -2.96153,-3.01087 c -1.62884,-1.65597 -5.58811,-5.37999 -8.79838,-8.2756 -3.21027,-2.8956 -8.13105,-7.05058 -10.93506,-9.23329 -2.80401,-2.1827 -7.29831,-5.41924 -9.98734,-7.1923 -2.68903,-1.77306 -7.33199,-4.58222 -10.31769,-6.24257 -2.9857,-1.66036 -8.13353,-4.16314 -11.43961,-5.56175 -3.30609,-1.3986 -8.6947,-3.31711 -11.97469,-4.26335 -3.28,-0.94624 -6.18577,-1.64639 -6.45727,-1.55589 -0.2715,0.0905 1.41089,1.43178 3.73865,2.98062 2.32776,1.54884 5.90899,4.57602 7.95828,6.72708 2.04929,2.15105 4.81582,5.44353 6.14785,7.31663 1.33202,1.8731 3.16997,5.02481 4.08432,7.0038 0.91435,1.97899 2.18699,5.51152 2.82809,7.85007 1.02357,3.73368 1.16127,5.31888 1.12985,13.00634 -0.0329,8.04726 -0.146,9.11612 -1.40014,13.23203 -0.7504,2.46267 -2.30313,6.28204 -3.45053,8.48748 -1.14739,2.20544 -3.36259,5.61613 -4.92266,7.57931 -1.56007,1.96318 -4.61177,5.13377 -6.78156,7.04577 -2.16979,1.91199 -4.95128,4.16661 -6.18108,5.01026 -1.2298,0.84366 -3.64297,2.24243 -5.36259,3.10839 -1.71962,0.86596 -3.12658,1.71286 -3.12658,1.88201 0,0.16915 1.40696,0.15141 3.12658,-0.0394 1.71962,-0.19083 5.26517,-0.80344 7.87899,-1.36137 z m -48.52458,0.87646 c 0,-0.1113 -1.2944,-0.92669 -2.87645,-1.81197 -1.58205,-0.88529 -4.22714,-2.57203 -5.87798,-3.74832 -1.65084,-1.17629 -4.65361,-3.81398 -6.67283,-5.86153 -2.01922,-2.04755 -4.68313,-5.16597 -5.91981,-6.92982 -1.23668,-1.76385 -2.8736,-4.44513 -3.63761,-5.9584 -0.76402,-1.51327 -1.89359,-4.21463 -2.51017,-6.00304 -0.61657,-1.78841 -1.43503,-5.16512 -1.81879,-7.5038 -0.38376,-2.33868 -0.69861,-6.24282 -0.69965,-8.67585 -0.001,-2.44391 0.43958,-6.58577 0.98457,-9.25469 0.54256,-2.65704 1.54966,-6.26556 2.238,-8.01892 0.68835,-1.75336 1.96037,-4.45473 2.82673,-6.00304 0.86635,-1.54831 2.69352,-4.33333 4.06036,-6.18893 1.36685,-1.8556 3.98436,-4.75277 5.81668,-6.43817 1.83233,-1.68539 5.0126,-4.20289 7.06728,-5.59443 2.05467,-1.39154 3.47151,-2.61817 3.14852,-2.72583 -0.32299,-0.10766 -2.77736,0.40091 -5.45417,1.13015 -2.67681,0.72924 -7.13268,2.22828 -9.90194,3.33119 -2.76926,1.10291 -7.6488,3.33756 -10.84341,4.96588 -3.19461,1.62832 -7.80944,4.21437 -10.25519,5.74677 -2.44575,1.53241 -6.92307,4.64407 -9.9496,6.91481 -3.02653,2.27073 -7.3037,5.65225 -9.50481,7.51447 -2.20112,1.86223 -6.64712,5.9659 -9.88001,9.11927 -3.23289,3.15337 -5.87798,6.06618 -5.87798,6.47291 0,0.40674 2.98277,3.79891 6.62836,7.53817 3.6456,3.73925 9.10461,8.93249 12.13115,11.54054 3.02653,2.60804 7.31459,6.05083 9.52903,7.65065 2.21444,1.59981 6.46017,4.26226 9.43495,5.91655 2.97479,1.65428 8.14152,4.233 11.48161,5.73048 3.3401,1.49747 7.85914,3.33372 10.04232,4.08055 2.18318,0.74682 5.55989,1.77496 7.5038,2.28475 1.94391,0.50979 4.71623,0.93928 6.16071,0.95443 1.44449,0.0152 2.62633,-0.0635 2.62633,-0.17483 z m 25.52453,-33.56882 c 1.19026,-0.41995 3.11637,-1.49128 4.28025,-2.38074 1.16389,-0.88945 2.8145,-2.63715 3.66804,-3.88376 0.85353,-1.24661 1.77542,-3.04604 2.04865,-3.99872 0.27323,-0.95269 0.49678,-3.01961 0.49678,-4.59316 0,-1.70419 -0.43682,-4.03163 -1.08033,-5.75621 -0.7813,-2.09382 -1.87832,-3.67747 -3.96319,-5.72121 -1.9814,-1.9423 -3.79447,-3.17432 -5.79816,-3.93996 -1.99261,-0.76141 -4.02359,-1.11729 -6.41706,-1.12444 -2.57431,-0.008 -4.1065,0.277 -5.785,1.07489 -1.25577,0.59694 -3.21067,2.03696 -4.34423,3.20004 -1.13355,1.16308 -2.68757,3.35282 -3.45337,4.86609 -1.19218,2.35585 -1.3945,3.36269 -1.40729,7.00355 -0.0116,3.30842 0.22205,4.76536 1.05288,6.56452 0.5873,1.27181 1.92307,3.25904 2.96839,4.41608 1.04531,1.15704 2.98323,2.65233 4.30648,3.32287 1.32325,0.67054 3.251,1.43055 4.28389,1.6889 1.0329,0.25835 3.02576,0.36962 4.42858,0.24726 1.40283,-0.12235 3.52444,-0.56606 4.71469,-0.986 z"
       id="path1" /><path
       id="path2"
       style="fill:#b3b3b3;stroke:#000000;stroke-width:6.28221"
       d="M 233.51367 104.74414 C 233.34074 104.75081 233.0877 104.79277 232.76953 104.84961 C 228.08834 105.6859 218.49188 109.31034 210.54492 113.24414 C 198.54409 119.18463 187.37792 126.85232 175.88867 137.04102 C 170.81533 141.54009 163.69531 148.77554 163.69531 149.43164 C 163.69531 150.87822 178.98955 165.92265 187.01562 172.37109 C 197.93671 181.14549 215.65928 190.09864 229.2168 193.68945 C 231.41568 194.27184 234.29393 194.75793 235.61328 194.76953 L 238.01367 194.79102 L 233.87891 192.19336 C 223.39776 185.60903 215.99635 177.09043 211.96875 166.97656 C 209.46992 160.70165 208.77603 156.59177 208.82812 148.36914 C 208.86688 142.25585 209.03132 140.66772 210.00391 137.00977 C 213.21294 124.94058 219.20315 116.21233 229.82812 108.12305 C 233.49132 105.33408 234.26303 104.71523 233.51367 104.74414 z M 283.81055 105.12891 C 283.71199 105.12545 283.63757 105.13057 283.58984 105.14648 C 283.33097 105.23277 284.88927 106.62416 287.05078 108.23828 C 293.23882 112.85923 298.86276 119.21554 302.4668 125.66016 C 303.34594 127.23222 304.81017 130.68449 305.7207 133.33398 L 307.375 138.15234 L 307.53711 147.56641 C 307.71605 158.03627 307.31642 160.66361 304.53711 167.33984 C 300.39194 177.29696 291.4068 187.08509 280.87109 193.12109 C 277.55 195.02378 277.33041 195.23042 278.61328 195.23242 C 280.73845 195.2358 288.75349 193.60941 293.94531 192.12109 C 307.69052 188.18082 319.13175 182.06811 330.48438 172.59961 C 338.06982 166.27308 348.34853 156.70245 351.5 153.0332 L 354.36133 149.70117 L 348.87109 144.43555 C 331.33952 127.62043 314.39524 116.07748 297.4043 109.37305 C 292.24248 107.33624 285.28883 105.18069 283.81055 105.12891 z M 258.625 130.56055 C 253.05556 130.23529 247.7156 133.25887 244.66016 139.24805 C 240.7016 147.00747 243.95054 156.23951 252.05273 160.25 C 254.15207 161.28915 256.6692 162.13677 257.64648 162.13477 C 261.07512 162.12656 266.05901 160.27284 268.75781 158.00195 C 276.09776 151.82579 275.96098 141.43573 268.45312 134.84375 C 265.39195 132.156 261.96667 130.7557 258.625 130.56055 z M 258.875 240.92188 C 258.05198 240.92188 251.90974 242.76846 245.22461 245.02344 C 212.68921 255.99803 191.70745 259.53337 162.05273 259.04102 L 147.14062 258.79492 L 147.55859 267.29102 C 148.5811 288.06523 151.42937 311.89003 153.41016 316.24219 C 154.03296 317.61057 158.80709 323.53719 164.01953 329.41211 C 169.23196 335.28704 178.55759 346.68653 184.74219 354.74414 C 202.8409 378.32406 216.65815 395.10379 217.65234 394.71094 C 217.91505 394.60713 219.5939 392.75521 221.38281 390.5957 C 223.17173 388.43619 224.88721 386.66992 225.19531 386.66992 C 225.5034 386.66992 226.33897 388.23098 227.05273 390.13867 C 227.76649 392.04636 229.0379 394.94421 229.87695 396.57812 C 232.11073 400.92802 240.84302 411.55775 249.99219 421.06445 C 254.39818 425.64261 258.3749 429.38867 258.83008 429.38867 C 259.77991 429.38867 276.20916 411.70666 278.70312 408 C 279.61477 406.64506 280.85584 403.48308 281.46094 400.97266 C 283.39352 392.95471 290.04598 375.9034 290.90625 376.76367 C 291.09503 376.95245 291.77885 379.69004 292.42578 382.84766 C 294.00084 390.53543 296.11717 396.72672 297.32812 397.19141 C 299.53945 398.03998 309.61242 384.33595 312.44922 376.61914 C 313.52888 373.68221 315.93837 367.13081 317.80469 362.06055 C 321.08395 353.15177 323.75457 348.34766 325.42969 348.34766 C 325.88424 348.34766 326.57069 349.78439 327.00586 351.64648 C 327.42978 353.46046 328.16393 355.89522 328.63672 357.05664 L 329.49609 359.16797 L 332.93555 354.37305 C 336.30559 349.67592 349.26115 333.49269 358.62891 322.27734 C 363.92349 315.9385 363.49532 317.25133 365.9082 299.97461 C 367.91377 285.61434 369.08008 272.95096 369.08008 265.54102 L 369.08008 258.71484 L 346.62109 258.31836 C 324.61454 257.9309 317.94358 257.40346 305.50781 255.06445 C 293.99565 252.89916 279.65014 248.60297 266.68945 243.43945 C 263.21502 242.05524 259.69802 240.92188 258.875 240.92188 z M 165.13672 282.64258 C 166.14064 282.67834 169.32567 284.27269 174.95703 287.28906 C 181.45031 290.7671 183.6742 292.36206 187.83594 296.51953 C 192.07514 300.75438 199.46094 310.29886 199.46094 311.54297 C 199.46094 312.34266 198.28891 311.70139 192.54883 307.75195 C 182.39954 300.76876 178.05029 297.17044 170.5625 289.57031 C 165.8899 284.82761 163.92509 282.59941 165.13672 282.64258 z M 320.33594 286.20703 C 320.47632 286.35055 319.21337 290.28468 317.5293 294.94922 C 315.84522 299.61376 314.153 304.70296 313.76953 306.25781 C 313.22715 308.457 312.20059 309.92126 309.15039 312.85352 C 306.99387 314.92665 304.06551 318.60283 302.64258 321.02148 C 300.72633 324.27868 299.12815 326.07038 296.47656 327.93164 C 290.66136 332.01357 285.93389 336.11406 282.75586 339.83398 C 279.95619 343.11104 278.61523 344.05852 278.61523 342.76172 C 278.61523 341.22562 285.32697 324.75557 288.16016 319.33789 C 292.59391 310.85961 296.08012 306.76393 302.68164 302.28125 C 306.07408 299.97766 310.5121 296.08909 314.14844 292.23438 C 317.41096 288.77592 320.19556 286.06351 320.33594 286.20703 z " /></g><g
     inkscape:groupmode="layer"
     id="layer4"
     inkscape:label="Layer 2" /></svg>
