<?xml version="1.0" encoding="UTF-8"?>
<!DOCTYPE svg PUBLIC "-//W3C//DTD SVG 1.1//EN" "http://www.w3.org/Graphics/SVG/1.1/DTD/svg11.dtd">
<svg xmlns="http://www.w3.org/2000/svg" version="1.1" width="288px" height="288px" style="shape-rendering:geometricPrecision; text-rendering:geometricPrecision; image-rendering:optimizeQuality; fill-rule:evenodd; clip-rule:evenodd" xmlns:xlink="http://www.w3.org/1999/xlink">
<g><path style="opacity:1" fill="#fefefe" d="M -0.5,-0.5 C 95.5,-0.5 191.5,-0.5 287.5,-0.5C 287.5,95.5 287.5,191.5 287.5,287.5C 191.5,287.5 95.5,287.5 -0.5,287.5C -0.5,191.5 -0.5,95.5 -0.5,-0.5 Z"/></g>
<g><path style="opacity:1" fill="#060606" d="M 185.5,57.5 C 210.256,70.4109 218.922,90.4109 211.5,117.5C 213.626,121.711 215.459,126.044 217,130.5C 225.152,134.9 231.819,140.9 237,148.5C 240.733,161.366 236.567,170.7 224.5,176.5C 220.487,174.494 216.82,171.994 213.5,169C 212.668,168.312 212.002,168.479 211.5,169.5C 220.317,195.36 211.317,211.193 184.5,217C 181.183,217.498 177.85,217.665 174.5,217.5C 172.172,224.002 167.839,228.835 161.5,232C 145.76,238.556 130.427,237.89 115.5,230C 111.897,226.62 108.897,222.787 106.5,218.5C 93.2355,223.365 80.5688,222.198 68.5,215C 65.0673,211.958 62.234,208.458 60,204.5C 59.028,206.768 57.6946,208.768 56,210.5C 49.8836,208.721 45.2169,205.054 42,199.5C 37.0379,191.143 36.3712,182.477 40,173.5C 43.1695,166.495 46.3361,159.495 49.5,152.5C 46.2216,148.048 42.7216,143.715 39,139.5C 30.2851,123.505 28.6184,106.838 34,89.5C 36.2905,85.3808 39.1238,81.7142 42.5,78.5C 45.6369,84.0997 48.8036,89.7664 52,95.5C 57.65,102.143 64.65,106.809 73,109.5C 93.9361,97.0976 116.603,90.4309 141,89.5C 152.595,90.6856 163.929,93.019 175,96.5C 179.54,92.2951 182.874,87.2951 185,81.5C 185.5,73.5069 185.666,65.5069 185.5,57.5 Z"/></g>
<g><path style="opacity:1" fill="#b6a9b7" d="M 195.5,85.5 C 193.6,81.3674 191.433,77.3674 189,73.5C 188.768,74.7375 188.268,75.7375 187.5,76.5C 188.089,71.5195 188.589,66.5195 189,61.5C 194.591,65.0863 199.591,69.4196 204,74.5C 204.051,80.2939 201.217,83.9606 195.5,85.5 Z"/></g>
<g><path style="opacity:1" fill="#f7f7f7" d="M 195.5,85.5 C 195.328,86.4916 195.662,87.1583 196.5,87.5C 197.964,91.5344 199.298,95.5344 200.5,99.5C 200.5,99.8333 200.5,100.167 200.5,100.5C 200.768,102.099 200.434,103.432 199.5,104.5C 192.664,101.443 185.664,98.7763 178.5,96.5C 184.218,91.0642 187.218,84.3975 187.5,76.5C 188.268,75.7375 188.768,74.7375 189,73.5C 191.433,77.3674 193.6,81.3674 195.5,85.5 Z"/></g>
<g><path style="opacity:1" fill="#b6a8b7" d="M 200.5,99.5 C 199.298,95.5344 197.964,91.5344 196.5,87.5C 201.111,86.056 204.278,83.056 206,78.5C 213.334,88.0135 211.501,95.0135 200.5,99.5 Z"/></g>
<g><path style="opacity:1" fill="#f8f8f8" d="M 40.5,83.5 C 42.2557,96.9157 47.0891,109.249 55,120.5C 55.49,121.793 55.6567,123.127 55.5,124.5C 52.4323,131.875 50.2656,139.542 49,147.5C 44.1976,142.864 40.3643,137.531 37.5,131.5C 37.8333,131.167 38.1667,130.833 38.5,130.5C 41.0205,131.785 43.6872,132.452 46.5,132.5C 46.5,131.5 46.5,130.5 46.5,129.5C 39.466,130.25 35.2993,127.25 34,120.5C 33.3333,116.5 33.3333,112.5 34,108.5C 36.6904,111.449 39.8571,112.449 43.5,111.5C 33.1022,107.487 30.6022,100.487 36,90.5C 37.5106,88.1384 39.0106,85.8051 40.5,83.5 Z"/></g>
<g><path style="opacity:1" fill="#b8aab8" d="M 55.5,124.5 C 55.6567,123.127 55.49,121.793 55,120.5C 47.0891,109.249 42.2557,96.9157 40.5,83.5C 40.7828,82.7109 41.2828,82.0442 42,81.5C 44.9513,88.5767 48.7846,95.0767 53.5,101C 58.6729,105.09 64.3395,108.423 70.5,111C 66.8333,113.333 63.1667,115.667 59.5,118C 57.7518,120.013 56.4185,122.18 55.5,124.5 Z"/></g>
<g><path style="opacity:1" fill="#1a0000" d="M 142.5,126.5 C 141.596,125.791 141.263,124.791 141.5,123.5C 145.182,123.335 148.848,123.501 152.5,124C 158.206,131.374 164.873,137.707 172.5,143C 186.22,147.078 200.22,149.078 214.5,149C 215.299,145.223 215.132,141.39 214,137.5C 210.775,129.383 207.275,121.383 203.5,113.5C 179.133,103.408 153.8,97.7411 127.5,96.5C 126.833,95.5 126.167,94.5 125.5,93.5C 153.245,91.8498 179.578,97.3498 204.5,110C 213.488,123.131 218.155,137.631 218.5,153.5C 205.016,153.131 191.682,151.631 178.5,149C 166.221,145.385 156.888,138.051 150.5,127C 147.854,126.503 145.187,126.336 142.5,126.5 Z"/></g>
<g><path style="opacity:1" fill="#262626" d="M 125.5,93.5 C 126.167,94.5 126.833,95.5 127.5,96.5C 118.344,99.1286 109.01,101.795 99.5,104.5C 100.96,102.537 102.627,100.704 104.5,99C 104.272,98.6012 103.938,98.4346 103.5,98.5C 110.513,95.9158 117.846,94.2492 125.5,93.5 Z"/></g>
<g><path style="opacity:1" fill="#040303" d="M 127.5,96.5 C 153.8,97.7411 179.133,103.408 203.5,113.5C 207.275,121.383 210.775,129.383 214,137.5C 215.132,141.39 215.299,145.223 214.5,149C 200.22,149.078 186.22,147.078 172.5,143C 164.873,137.707 158.206,131.374 152.5,124C 148.848,123.501 145.182,123.335 141.5,123.5C 139.856,123.286 138.356,123.62 137,124.5C 117.645,152.49 91.6448,170.823 59,179.5C 58.1626,175.486 57.3292,171.486 56.5,167.5C 54.5371,151.475 57.0371,136.142 64,121.5C 75.5093,115.162 87.3426,109.495 99.5,104.5C 109.01,101.795 118.344,99.1286 127.5,96.5 Z"/></g>
<g><path style="opacity:1" fill="#b2a4b3" d="M 199.5,104.5 C 200.434,103.432 200.768,102.099 200.5,100.5C 205.121,100.205 208.788,98.2047 211.5,94.5C 213.035,101.34 212.535,108.007 210,114.5C 208.5,112.167 207,109.833 205.5,107.5C 203.396,106.481 201.396,105.481 199.5,104.5 Z"/></g>
<g><path style="opacity:1" fill="#646464" d="M 103.5,98.5 C 103.938,98.4346 104.272,98.6012 104.5,99C 102.627,100.704 100.96,102.537 99.5,104.5C 87.3426,109.495 75.5093,115.162 64,121.5C 57.0371,136.142 54.5371,151.475 56.5,167.5C 55.6255,170.535 54.6255,173.535 53.5,176.5C 49.2489,157.054 51.4156,138.387 60,120.5C 73.615,111.442 88.115,104.109 103.5,98.5 Z"/></g>
<g><path style="opacity:1" fill="#414141" d="M 130.5,100.5 C 131.978,100.238 133.311,100.571 134.5,101.5C 137.484,107.981 138.151,114.648 136.5,121.5C 131.245,128.6 125.745,135.6 120,142.5C 114.401,148.035 108.235,152.702 101.5,156.5C 104.556,147.055 105.723,137.388 105,127.5C 103.38,125.274 101.214,123.94 98.5,123.5C 95.3,124.531 92.4667,126.198 90,128.5C 89.7314,122.569 90.8981,116.902 93.5,111.5C 93.3764,110.893 93.0431,110.56 92.5,110.5C 104.492,104.953 117.159,101.62 130.5,100.5 Z"/></g>
<g><path style="opacity:1" fill="#37232a" d="M 130.5,100.5 C 137.694,99.3628 145.028,99.5295 152.5,101C 168.763,104.566 184.763,109.066 200.5,114.5C 206.677,124.364 210.677,135.031 212.5,146.5C 200.648,146.45 188.982,144.95 177.5,142C 167.686,137.856 160.02,131.19 154.5,122C 148.509,121.501 142.509,121.334 136.5,121.5C 138.151,114.648 137.484,107.981 134.5,101.5C 133.311,100.571 131.978,100.238 130.5,100.5 Z"/></g>
<g><path style="opacity:1" fill="#726267" d="M 92.5,110.5 C 93.0431,110.56 93.3764,110.893 93.5,111.5C 90.8981,116.902 89.7314,122.569 90,128.5C 92.4667,126.198 95.3,124.531 98.5,123.5C 101.214,123.94 103.38,125.274 105,127.5C 105.723,137.388 104.556,147.055 101.5,156.5C 96.1757,161.167 90.1757,164.834 83.5,167.5C 84.135,164.127 84.635,160.794 85,157.5C 80.0129,159.697 76.3463,158.364 74,153.5C 73.1031,141.755 73.6031,130.089 75.5,118.5C 80.746,115.045 86.4126,112.378 92.5,110.5 Z"/></g>
<g><path style="opacity:1" fill="#414141" d="M 75.5,118.5 C 73.6031,130.089 73.1031,141.755 74,153.5C 76.3463,158.364 80.0129,159.697 85,157.5C 84.635,160.794 84.135,164.127 83.5,167.5C 76.2745,171.467 68.6078,174.467 60.5,176.5C 56.3311,158.164 58.1645,140.497 66,123.5C 68.8255,121.171 71.9922,119.504 75.5,118.5 Z"/></g>
<g><path style="opacity:1" fill="#252525" d="M 141.5,123.5 C 141.263,124.791 141.596,125.791 142.5,126.5C 140.782,127.224 138.948,127.891 137,128.5C 125.348,147.819 109.515,162.652 89.5,173C 79.1186,178.182 68.452,182.682 57.5,186.5C 55.9657,183.227 54.6324,179.894 53.5,176.5C 54.6255,173.535 55.6255,170.535 56.5,167.5C 57.3292,171.486 58.1626,175.486 59,179.5C 91.6448,170.823 117.645,152.49 137,124.5C 138.356,123.62 139.856,123.286 141.5,123.5 Z"/></g>
<g><path style="opacity:1" fill="#fbfbfb" d="M 135.5,189.5 C 133.869,185.768 132.869,181.768 132.5,177.5C 131.021,168.208 126.688,160.542 119.5,154.5C 126.704,146.793 133.371,138.627 139.5,130C 142.833,129.333 146.167,129.333 149.5,130C 154.98,138.916 162.647,145.25 172.5,149C 160.368,153.132 152.201,161.299 148,173.5C 146.84,178.434 146.34,183.434 146.5,188.5C 142.802,188.552 139.135,188.886 135.5,189.5 Z"/></g>
<g><path style="opacity:1" fill="#392228" d="M 223.5,138.5 C 223.665,142.182 223.499,145.848 223,149.5C 222.768,150.737 222.268,151.737 221.5,152.5C 220.333,146.504 219.5,140.504 219,134.5C 220.667,135.733 222.167,137.067 223.5,138.5 Z"/></g>
<g><path style="opacity:1" fill="#606060" d="M 223.5,138.5 C 228.873,141.541 232.873,145.874 235.5,151.5C 233.498,156.844 230.498,161.511 226.5,165.5C 222.981,162.146 219.314,158.98 215.5,156C 217.473,155.505 219.473,155.338 221.5,155.5C 221.5,154.5 221.5,153.5 221.5,152.5C 222.268,151.737 222.768,150.737 223,149.5C 223.499,145.848 223.665,142.182 223.5,138.5 Z"/></g>
<g><path style="opacity:1" fill="#090909" d="M 228.5,147.5 C 229.376,147.369 230.043,147.702 230.5,148.5C 228.988,152.201 226.988,155.534 224.5,158.5C 223.417,157.635 223.251,156.635 224,155.5C 225.765,152.968 227.265,150.301 228.5,147.5 Z"/></g>
<g><path style="opacity:1" fill="#3a2429" d="M 201.5,156.5 C 204.64,155.359 207.973,155.192 211.5,156C 215.967,159.465 220.133,163.298 224,167.5C 224.494,169.134 224.66,170.801 224.5,172.5C 215.777,168.791 208.11,163.458 201.5,156.5 Z"/></g>
<g><path style="opacity:1" fill="#b6a9b7" d="M 210.5,196.5 C 205.289,191.056 198.956,187.389 191.5,185.5C 196.846,176.199 197.846,166.365 194.5,156C 194.667,155.5 194.833,155 195,154.5C 205.611,161.464 211.778,171.298 213.5,184C 213.308,188.485 212.308,192.652 210.5,196.5 Z"/></g>
<g><path style="opacity:1" fill="#b7a9b8" d="M 130.5,182.5 C 127.802,179.483 124.469,177.483 120.5,176.5C 120.601,170.004 118.934,164.004 115.5,158.5C 115.808,157.692 116.308,157.025 117,156.5C 126.117,162.78 130.617,171.447 130.5,182.5 Z"/></g>
<g><path style="opacity:1" fill="#392328" d="M 234.5,158.5 C 235.764,160.772 235.598,163.105 234,165.5C 231.936,168.274 229.436,170.107 226.5,171C 229.386,166.953 232.052,162.786 234.5,158.5 Z"/></g>
<g><path style="opacity:1" fill="#f5f5f5" d="M 120.5,176.5 C 124.469,177.483 127.802,179.483 130.5,182.5C 130.664,185.187 130.497,187.854 130,190.5C 119.426,193.935 111.76,200.602 107,210.5C 106.808,212.577 106.308,214.577 105.5,216.5C 86.53,223.344 71.6967,218.344 61,201.5C 58.9234,197.078 58.4234,192.578 59.5,188C 60.4162,187.626 61.2496,187.126 62,186.5C 64.315,197.601 71.1484,204.101 82.5,206C 103.846,207.481 116.513,197.648 120.5,176.5 Z"/></g>
<g><path style="opacity:1" fill="#636363" d="M 50.5,174.5 C 52.0344,178.292 52.8678,182.292 53,186.5C 50.2723,191.286 48.1056,196.286 46.5,201.5C 45.4756,200.148 44.4756,198.815 43.5,197.5C 44.5808,194.373 45.2474,191.04 45.5,187.5C 46.265,188.66 47.265,189.66 48.5,190.5C 48.8333,190 49.1667,189.5 49.5,189C 48.356,186.367 47.0227,183.867 45.5,181.5C 47.5475,179.45 49.2141,177.117 50.5,174.5 Z"/></g>
<g><path style="opacity:1" fill="#0d0d0d" d="M 45.5,181.5 C 47.0227,183.867 48.356,186.367 49.5,189C 49.1667,189.5 48.8333,190 48.5,190.5C 47.265,189.66 46.265,188.66 45.5,187.5C 44.63,184.622 43.2967,181.955 41.5,179.5C 43.3448,178.605 44.6782,179.272 45.5,181.5 Z"/></g>
<g><path style="opacity:1" fill="#919191" d="M 132.5,177.5 C 132.869,181.768 133.869,185.768 135.5,189.5C 134.791,190.404 133.791,190.737 132.5,190.5C 132.5,186.167 132.5,181.833 132.5,177.5 Z"/></g>
<g><path style="opacity:1" fill="#939393" d="M 50.5,174.5 C 49.2141,177.117 47.5475,179.45 45.5,181.5C 44.6782,179.272 43.3448,178.605 41.5,179.5C 43.2967,181.955 44.63,184.622 45.5,187.5C 45.2474,191.04 44.5808,194.373 43.5,197.5C 40.359,192.243 39.1923,186.576 40,180.5C 42.0381,173.38 45.0381,166.713 49,160.5C 49.5375,165.171 50.0375,169.838 50.5,174.5 Z"/></g>
<g><path style="opacity:1" fill="#f9f9f9" d="M 191.5,185.5 C 198.956,187.389 205.289,191.056 210.5,196.5C 209.249,201.262 206.582,205.095 202.5,208C 194.131,212.842 185.131,215.342 175.5,215.5C 176.618,206.739 173.618,199.906 166.5,195C 176.447,195.615 184.78,192.448 191.5,185.5 Z"/></g>
<g><path style="opacity:1" fill="#9d919e" d="M 148.5,185.5 C 153.421,187.354 153.421,188.354 148.5,188.5C 148.5,187.5 148.5,186.5 148.5,185.5 Z"/></g>
<g><path style="opacity:1" fill="#392329" d="M 54.5,188.5 C 56.2944,192.109 57.6277,196.109 58.5,200.5C 57.3906,202.385 56.5573,204.385 56,206.5C 52.769,207.646 50.6024,206.479 49.5,203C 50.2891,197.797 51.9558,192.964 54.5,188.5 Z"/></g>
<g><path style="opacity:1" fill="#f8f8f8" d="M 141.5,191.5 C 144.833,192.833 147.167,195.167 148.5,198.5C 141.73,198.52 135.397,200.187 129.5,203.5C 128.167,204.5 128.167,205.5 129.5,206.5C 134.637,208.712 139.97,210.212 145.5,211C 147.418,212.77 147.918,214.937 147,217.5C 145.5,219 144,220.5 142.5,222C 138.179,223.166 133.845,224.333 129.5,225.5C 137.615,227.129 144.282,224.796 149.5,218.5C 152.4,220.951 155.734,222.285 159.5,222.5C 159.5,224.833 159.5,227.167 159.5,229.5C 144.993,236.533 130.659,236.033 116.5,228C 105.421,217.672 106.088,208.005 118.5,199C 125.469,194.399 133.136,191.899 141.5,191.5 Z"/></g>
<g><path style="opacity:1" fill="#b5a7b6" d="M 141.5,191.5 C 154.464,188.887 164.631,193.221 172,204.5C 175.289,216.59 171.122,224.923 159.5,229.5C 159.5,227.167 159.5,224.833 159.5,222.5C 160.5,222.5 161.5,222.5 162.5,222.5C 162.5,221.5 162.5,220.5 162.5,219.5C 158.456,220.042 154.789,219.209 151.5,217C 150.577,214.959 150.244,212.792 150.5,210.5C 155.839,209.998 160.172,207.664 163.5,203.5C 158.983,200.452 153.983,198.786 148.5,198.5C 147.167,195.167 144.833,192.833 141.5,191.5 Z"/></g>
<g><path style="opacity:1" fill="#100e0f" d="M 148.5,198.5 C 153.983,198.786 158.983,200.452 163.5,203.5C 160.172,207.664 155.839,209.998 150.5,210.5C 150.244,212.792 150.577,214.959 151.5,217C 154.789,219.209 158.456,220.042 162.5,219.5C 162.5,220.5 162.5,221.5 162.5,222.5C 161.5,222.5 160.5,222.5 159.5,222.5C 155.734,222.285 152.4,220.951 149.5,218.5C 144.282,224.796 137.615,227.129 129.5,225.5C 133.845,224.333 138.179,223.166 142.5,222C 144,220.5 145.5,219 147,217.5C 147.918,214.937 147.418,212.77 145.5,211C 139.97,210.212 134.637,208.712 129.5,206.5C 128.167,205.5 128.167,204.5 129.5,203.5C 135.397,200.187 141.73,198.52 148.5,198.5 Z"/></g>
<g><path style="opacity:1" fill="#f78693" d="M 142.5,201.5 C 145.167,201.5 147.833,201.5 150.5,201.5C 150.878,203.921 151.545,206.254 152.5,208.5C 146.037,210.049 139.703,209.215 133.5,206C 132.167,205.333 132.167,204.667 133.5,204C 136.206,202.092 139.206,201.259 142.5,201.5 Z"/></g>
<g><path style="opacity:1" fill="#cf4a69" d="M 142.5,201.5 C 148.681,199.89 154.681,200.723 160.5,204C 158.183,206.157 155.516,207.657 152.5,208.5C 151.545,206.254 150.878,203.921 150.5,201.5C 147.833,201.5 145.167,201.5 142.5,201.5 Z"/></g>
</svg>
